<mxfile host="app.diagrams.net" modified="2023-11-04T21:03:36.009Z" agent="Mozilla/5.0 (Macintosh; Intel Mac OS X 10_15_7) AppleWebKit/605.1.15 (KHTML, like Gecko) Version/15.4 Safari/605.1.15" etag="BTf-eNLwewGSvt7tIqDS" version="22.0.8" type="device">
  <diagram name="Страница — 1" id="0pkP4Ag8jMzm8uj4QNQ5">
    <mxGraphModel dx="1026" dy="692" grid="0" gridSize="10" guides="1" tooltips="1" connect="1" arrows="1" fold="1" page="1" pageScale="1" pageWidth="3300" pageHeight="4681" background="#FFFFFF" math="0" shadow="0">
      <root>
        <mxCell id="0" />
        <mxCell id="1" parent="0" />
        <mxCell id="C0oqWAfK8oSzfUO2mAY3-1" value="Admin&lt;br&gt;" style="shape=umlActor;verticalLabelPosition=bottom;verticalAlign=top;html=1;labelBackgroundColor=none;fillColor=#A8DADC;strokeColor=#457B9D;fontColor=#1D3557;" parent="1" vertex="1">
          <mxGeometry x="233" y="649" width="30" height="60" as="geometry" />
        </mxCell>
        <mxCell id="C0oqWAfK8oSzfUO2mAY3-2" value="" style="ellipse;whiteSpace=wrap;html=1;labelBackgroundColor=none;fillColor=#A8DADC;strokeColor=#457B9D;fontColor=#1D3557;" parent="1" vertex="1">
          <mxGeometry x="361" y="496" width="126" height="50" as="geometry" />
        </mxCell>
        <mxCell id="C0oqWAfK8oSzfUO2mAY3-3" value="Manage Accounts" style="text;html=1;strokeColor=none;fillColor=none;align=center;verticalAlign=middle;whiteSpace=wrap;rounded=0;labelBackgroundColor=none;fontColor=#1D3557;" parent="1" vertex="1">
          <mxGeometry x="394" y="506" width="60" height="30" as="geometry" />
        </mxCell>
        <mxCell id="C0oqWAfK8oSzfUO2mAY3-4" value="" style="ellipse;whiteSpace=wrap;html=1;labelBackgroundColor=none;fillColor=#A8DADC;strokeColor=#457B9D;fontColor=#1D3557;" parent="1" vertex="1">
          <mxGeometry x="517" y="426" width="126" height="50" as="geometry" />
        </mxCell>
        <mxCell id="C0oqWAfK8oSzfUO2mAY3-5" value="Delete Accounts" style="text;html=1;strokeColor=none;fillColor=none;align=center;verticalAlign=middle;whiteSpace=wrap;rounded=0;labelBackgroundColor=none;fontColor=#1D3557;" parent="1" vertex="1">
          <mxGeometry x="550" y="436" width="60" height="30" as="geometry" />
        </mxCell>
        <mxCell id="C0oqWAfK8oSzfUO2mAY3-8" value="" style="ellipse;whiteSpace=wrap;html=1;labelBackgroundColor=none;fillColor=#A8DADC;strokeColor=#457B9D;fontColor=#1D3557;" parent="1" vertex="1">
          <mxGeometry x="517" y="576" width="126" height="50" as="geometry" />
        </mxCell>
        <mxCell id="C0oqWAfK8oSzfUO2mAY3-9" value="Create Accounts" style="text;html=1;strokeColor=none;fillColor=none;align=center;verticalAlign=middle;whiteSpace=wrap;rounded=0;labelBackgroundColor=none;fontColor=#1D3557;" parent="1" vertex="1">
          <mxGeometry x="550" y="586" width="60" height="30" as="geometry" />
        </mxCell>
        <mxCell id="C0oqWAfK8oSzfUO2mAY3-10" value="" style="endArrow=none;dashed=1;html=1;dashPattern=1 3;strokeWidth=2;rounded=0;exitX=1;exitY=0.5;exitDx=0;exitDy=0;entryX=0;entryY=0.5;entryDx=0;entryDy=0;labelBackgroundColor=none;strokeColor=#457B9D;fontColor=default;" parent="1" source="C0oqWAfK8oSzfUO2mAY3-2" target="C0oqWAfK8oSzfUO2mAY3-4" edge="1">
          <mxGeometry width="50" height="50" relative="1" as="geometry">
            <mxPoint x="397" y="616" as="sourcePoint" />
            <mxPoint x="447" y="566" as="targetPoint" />
          </mxGeometry>
        </mxCell>
        <mxCell id="C0oqWAfK8oSzfUO2mAY3-11" value="" style="endArrow=none;dashed=1;html=1;dashPattern=1 3;strokeWidth=2;rounded=0;exitX=1;exitY=0.5;exitDx=0;exitDy=0;entryX=0;entryY=0.5;entryDx=0;entryDy=0;labelBackgroundColor=none;strokeColor=#457B9D;fontColor=default;" parent="1" source="C0oqWAfK8oSzfUO2mAY3-2" target="C0oqWAfK8oSzfUO2mAY3-8" edge="1">
          <mxGeometry width="50" height="50" relative="1" as="geometry">
            <mxPoint x="437" y="636" as="sourcePoint" />
            <mxPoint x="487" y="586" as="targetPoint" />
          </mxGeometry>
        </mxCell>
        <mxCell id="C0oqWAfK8oSzfUO2mAY3-12" value="" style="ellipse;whiteSpace=wrap;html=1;labelBackgroundColor=none;fillColor=#A8DADC;strokeColor=#457B9D;fontColor=#1D3557;" parent="1" vertex="1">
          <mxGeometry x="517" y="496" width="126" height="50" as="geometry" />
        </mxCell>
        <mxCell id="C0oqWAfK8oSzfUO2mAY3-13" value="Edit Accounts" style="text;html=1;strokeColor=none;fillColor=none;align=center;verticalAlign=middle;whiteSpace=wrap;rounded=0;labelBackgroundColor=none;fontColor=#1D3557;" parent="1" vertex="1">
          <mxGeometry x="550" y="506" width="60" height="30" as="geometry" />
        </mxCell>
        <mxCell id="C0oqWAfK8oSzfUO2mAY3-14" value="" style="endArrow=none;dashed=1;html=1;dashPattern=1 3;strokeWidth=2;rounded=0;entryX=0;entryY=0.5;entryDx=0;entryDy=0;exitX=1;exitY=0.5;exitDx=0;exitDy=0;labelBackgroundColor=none;strokeColor=#457B9D;fontColor=default;" parent="1" source="C0oqWAfK8oSzfUO2mAY3-2" target="C0oqWAfK8oSzfUO2mAY3-12" edge="1">
          <mxGeometry width="50" height="50" relative="1" as="geometry">
            <mxPoint x="487" y="516" as="sourcePoint" />
            <mxPoint x="567" y="556" as="targetPoint" />
          </mxGeometry>
        </mxCell>
        <mxCell id="C0oqWAfK8oSzfUO2mAY3-15" value="" style="ellipse;whiteSpace=wrap;html=1;labelBackgroundColor=none;fillColor=#A8DADC;strokeColor=#457B9D;fontColor=#1D3557;" parent="1" vertex="1">
          <mxGeometry x="687" y="536" width="126" height="50" as="geometry" />
        </mxCell>
        <mxCell id="C0oqWAfK8oSzfUO2mAY3-16" value="Choosing&lt;br&gt;Role" style="text;html=1;strokeColor=none;fillColor=none;align=center;verticalAlign=middle;whiteSpace=wrap;rounded=0;labelBackgroundColor=none;fontColor=#1D3557;" parent="1" vertex="1">
          <mxGeometry x="720" y="546" width="60" height="30" as="geometry" />
        </mxCell>
        <mxCell id="C0oqWAfK8oSzfUO2mAY3-17" value="" style="endArrow=none;dashed=1;html=1;dashPattern=1 3;strokeWidth=2;rounded=0;exitX=1;exitY=0.5;exitDx=0;exitDy=0;entryX=0;entryY=0.5;entryDx=0;entryDy=0;labelBackgroundColor=none;strokeColor=#457B9D;fontColor=default;" parent="1" source="C0oqWAfK8oSzfUO2mAY3-12" target="C0oqWAfK8oSzfUO2mAY3-15" edge="1">
          <mxGeometry width="50" height="50" relative="1" as="geometry">
            <mxPoint x="647" y="716" as="sourcePoint" />
            <mxPoint x="697" y="666" as="targetPoint" />
          </mxGeometry>
        </mxCell>
        <mxCell id="C0oqWAfK8oSzfUO2mAY3-18" value="" style="endArrow=none;dashed=1;html=1;dashPattern=1 3;strokeWidth=2;rounded=0;exitX=1;exitY=0.5;exitDx=0;exitDy=0;entryX=0;entryY=0.5;entryDx=0;entryDy=0;labelBackgroundColor=none;strokeColor=#457B9D;fontColor=default;" parent="1" source="C0oqWAfK8oSzfUO2mAY3-8" target="C0oqWAfK8oSzfUO2mAY3-15" edge="1">
          <mxGeometry width="50" height="50" relative="1" as="geometry">
            <mxPoint x="697" y="676" as="sourcePoint" />
            <mxPoint x="747" y="626" as="targetPoint" />
          </mxGeometry>
        </mxCell>
        <mxCell id="C0oqWAfK8oSzfUO2mAY3-19" value="" style="endArrow=none;html=1;rounded=0;entryX=0;entryY=0.5;entryDx=0;entryDy=0;labelBackgroundColor=none;strokeColor=#457B9D;fontColor=default;" parent="1" source="C0oqWAfK8oSzfUO2mAY3-1" target="C0oqWAfK8oSzfUO2mAY3-2" edge="1">
          <mxGeometry width="50" height="50" relative="1" as="geometry">
            <mxPoint x="358" y="700" as="sourcePoint" />
            <mxPoint x="408" y="650" as="targetPoint" />
          </mxGeometry>
        </mxCell>
        <mxCell id="C0oqWAfK8oSzfUO2mAY3-20" value="" style="ellipse;whiteSpace=wrap;html=1;labelBackgroundColor=none;fillColor=#A8DADC;strokeColor=#457B9D;fontColor=#1D3557;" parent="1" vertex="1">
          <mxGeometry x="352" y="840" width="126" height="50" as="geometry" />
        </mxCell>
        <mxCell id="C0oqWAfK8oSzfUO2mAY3-21" value="Manage System" style="text;html=1;strokeColor=none;fillColor=none;align=center;verticalAlign=middle;whiteSpace=wrap;rounded=0;labelBackgroundColor=none;fontColor=#1D3557;" parent="1" vertex="1">
          <mxGeometry x="385" y="850" width="60" height="30" as="geometry" />
        </mxCell>
        <mxCell id="C0oqWAfK8oSzfUO2mAY3-22" value="" style="ellipse;whiteSpace=wrap;html=1;labelBackgroundColor=none;fillColor=#A8DADC;strokeColor=#457B9D;fontColor=#1D3557;" parent="1" vertex="1">
          <mxGeometry x="518" y="780" width="126" height="50" as="geometry" />
        </mxCell>
        <mxCell id="C0oqWAfK8oSzfUO2mAY3-23" value="Checking&lt;br&gt;Status" style="text;html=1;strokeColor=none;fillColor=none;align=center;verticalAlign=middle;whiteSpace=wrap;rounded=0;labelBackgroundColor=none;fontColor=#1D3557;" parent="1" vertex="1">
          <mxGeometry x="551" y="790" width="60" height="30" as="geometry" />
        </mxCell>
        <mxCell id="C0oqWAfK8oSzfUO2mAY3-24" value="" style="endArrow=none;dashed=1;html=1;dashPattern=1 3;strokeWidth=2;rounded=0;exitX=1;exitY=0.5;exitDx=0;exitDy=0;entryX=0;entryY=0.5;entryDx=0;entryDy=0;labelBackgroundColor=none;strokeColor=#457B9D;fontColor=default;" parent="1" source="C0oqWAfK8oSzfUO2mAY3-20" target="C0oqWAfK8oSzfUO2mAY3-22" edge="1">
          <mxGeometry width="50" height="50" relative="1" as="geometry">
            <mxPoint x="528" y="900" as="sourcePoint" />
            <mxPoint x="578" y="850" as="targetPoint" />
          </mxGeometry>
        </mxCell>
        <mxCell id="C0oqWAfK8oSzfUO2mAY3-25" value="" style="ellipse;whiteSpace=wrap;html=1;labelBackgroundColor=none;fillColor=#A8DADC;strokeColor=#457B9D;fontColor=#1D3557;" parent="1" vertex="1">
          <mxGeometry x="518" y="900" width="150" height="70" as="geometry" />
        </mxCell>
        <mxCell id="C0oqWAfK8oSzfUO2mAY3-26" value="Notifying&lt;br&gt;SysAdmins&lt;br&gt;in Case of Trouble" style="text;html=1;strokeColor=none;fillColor=none;align=center;verticalAlign=middle;whiteSpace=wrap;rounded=0;labelBackgroundColor=none;fontColor=#1D3557;" parent="1" vertex="1">
          <mxGeometry x="539.5" y="920" width="107" height="30" as="geometry" />
        </mxCell>
        <mxCell id="C0oqWAfK8oSzfUO2mAY3-27" value="" style="endArrow=none;dashed=1;html=1;dashPattern=1 3;strokeWidth=2;rounded=0;exitX=1;exitY=0.5;exitDx=0;exitDy=0;entryX=0;entryY=0.5;entryDx=0;entryDy=0;labelBackgroundColor=none;strokeColor=#457B9D;fontColor=default;" parent="1" source="C0oqWAfK8oSzfUO2mAY3-20" target="C0oqWAfK8oSzfUO2mAY3-25" edge="1">
          <mxGeometry width="50" height="50" relative="1" as="geometry">
            <mxPoint x="438" y="980" as="sourcePoint" />
            <mxPoint x="488" y="930" as="targetPoint" />
          </mxGeometry>
        </mxCell>
        <mxCell id="C0oqWAfK8oSzfUO2mAY3-28" value="" style="endArrow=none;html=1;rounded=0;entryX=0;entryY=0.5;entryDx=0;entryDy=0;exitX=1;exitY=0.3333333333333333;exitDx=0;exitDy=0;exitPerimeter=0;labelBackgroundColor=none;strokeColor=#457B9D;fontColor=default;" parent="1" source="C0oqWAfK8oSzfUO2mAY3-1" target="C0oqWAfK8oSzfUO2mAY3-20" edge="1">
          <mxGeometry width="50" height="50" relative="1" as="geometry">
            <mxPoint x="258" y="900" as="sourcePoint" />
            <mxPoint x="308" y="850" as="targetPoint" />
          </mxGeometry>
        </mxCell>
        <mxCell id="C0oqWAfK8oSzfUO2mAY3-29" value="" style="ellipse;whiteSpace=wrap;html=1;labelBackgroundColor=none;fillColor=#A8DADC;strokeColor=#457B9D;fontColor=#1D3557;" parent="1" vertex="1">
          <mxGeometry x="678" y="750" width="126" height="50" as="geometry" />
        </mxCell>
        <mxCell id="C0oqWAfK8oSzfUO2mAY3-30" value="Checking&lt;br&gt;Server Status" style="text;html=1;strokeColor=none;fillColor=none;align=center;verticalAlign=middle;whiteSpace=wrap;rounded=0;labelBackgroundColor=none;fontColor=#1D3557;" parent="1" vertex="1">
          <mxGeometry x="711" y="760" width="60" height="30" as="geometry" />
        </mxCell>
        <mxCell id="C0oqWAfK8oSzfUO2mAY3-31" value="" style="ellipse;whiteSpace=wrap;html=1;labelBackgroundColor=none;fillColor=#A8DADC;strokeColor=#457B9D;fontColor=#1D3557;" parent="1" vertex="1">
          <mxGeometry x="678" y="830" width="126" height="50" as="geometry" />
        </mxCell>
        <mxCell id="C0oqWAfK8oSzfUO2mAY3-32" value="Checking&lt;br&gt;DB Status" style="text;html=1;strokeColor=none;fillColor=none;align=center;verticalAlign=middle;whiteSpace=wrap;rounded=0;labelBackgroundColor=none;fontColor=#1D3557;" parent="1" vertex="1">
          <mxGeometry x="711" y="840" width="60" height="30" as="geometry" />
        </mxCell>
        <mxCell id="C0oqWAfK8oSzfUO2mAY3-33" value="" style="endArrow=none;dashed=1;html=1;dashPattern=1 3;strokeWidth=2;rounded=0;exitX=1;exitY=0.5;exitDx=0;exitDy=0;entryX=0;entryY=0.5;entryDx=0;entryDy=0;labelBackgroundColor=none;strokeColor=#457B9D;fontColor=default;" parent="1" source="C0oqWAfK8oSzfUO2mAY3-22" target="C0oqWAfK8oSzfUO2mAY3-29" edge="1">
          <mxGeometry width="50" height="50" relative="1" as="geometry">
            <mxPoint x="588" y="910" as="sourcePoint" />
            <mxPoint x="638" y="860" as="targetPoint" />
          </mxGeometry>
        </mxCell>
        <mxCell id="C0oqWAfK8oSzfUO2mAY3-34" value="" style="endArrow=none;dashed=1;html=1;dashPattern=1 3;strokeWidth=2;rounded=0;exitX=1;exitY=0.5;exitDx=0;exitDy=0;entryX=0;entryY=0.5;entryDx=0;entryDy=0;labelBackgroundColor=none;strokeColor=#457B9D;fontColor=default;" parent="1" source="C0oqWAfK8oSzfUO2mAY3-22" target="C0oqWAfK8oSzfUO2mAY3-31" edge="1">
          <mxGeometry width="50" height="50" relative="1" as="geometry">
            <mxPoint x="608" y="900" as="sourcePoint" />
            <mxPoint x="658" y="850" as="targetPoint" />
          </mxGeometry>
        </mxCell>
        <mxCell id="C0oqWAfK8oSzfUO2mAY3-35" value="&quot;Include&quot;" style="text;html=1;strokeColor=none;fillColor=none;align=center;verticalAlign=middle;whiteSpace=wrap;rounded=0;rotation=-63;labelBackgroundColor=none;fontColor=#1D3557;" parent="1" vertex="1">
          <mxGeometry x="454" y="454" width="60" height="30" as="geometry" />
        </mxCell>
        <mxCell id="C0oqWAfK8oSzfUO2mAY3-36" value="&quot;Include&quot;" style="text;html=1;strokeColor=none;fillColor=none;align=center;verticalAlign=middle;whiteSpace=wrap;rounded=0;rotation=75;labelBackgroundColor=none;fontColor=#1D3557;" parent="1" vertex="1">
          <mxGeometry x="487" y="540" width="60" height="30" as="geometry" />
        </mxCell>
        <mxCell id="C0oqWAfK8oSzfUO2mAY3-37" value="&quot;Include&quot;" style="text;html=1;strokeColor=none;fillColor=none;align=center;verticalAlign=middle;whiteSpace=wrap;rounded=0;rotation=45;labelBackgroundColor=none;fontColor=#1D3557;" parent="1" vertex="1">
          <mxGeometry x="649" y="506" width="60" height="30" as="geometry" />
        </mxCell>
        <mxCell id="C0oqWAfK8oSzfUO2mAY3-38" value="&quot;Include&quot;" style="text;html=1;strokeColor=none;fillColor=none;align=center;verticalAlign=middle;whiteSpace=wrap;rounded=0;rotation=-45;labelBackgroundColor=none;fontColor=#1D3557;" parent="1" vertex="1">
          <mxGeometry x="643" y="586" width="60" height="30" as="geometry" />
        </mxCell>
        <mxCell id="C0oqWAfK8oSzfUO2mAY3-39" value="&quot;Include&quot;" style="text;html=1;strokeColor=none;fillColor=none;align=center;verticalAlign=middle;whiteSpace=wrap;rounded=0;rotation=-50;labelBackgroundColor=none;fontColor=#1D3557;" parent="1" vertex="1">
          <mxGeometry x="453" y="800" width="60" height="30" as="geometry" />
        </mxCell>
        <mxCell id="C0oqWAfK8oSzfUO2mAY3-40" value="&quot;Include&quot;" style="text;html=1;strokeColor=none;fillColor=none;align=center;verticalAlign=middle;whiteSpace=wrap;rounded=0;rotation=60;labelBackgroundColor=none;fontColor=#1D3557;" parent="1" vertex="1">
          <mxGeometry x="484" y="867" width="60" height="30" as="geometry" />
        </mxCell>
        <mxCell id="C0oqWAfK8oSzfUO2mAY3-41" value="&quot;Include&quot;" style="text;html=1;strokeColor=none;fillColor=none;align=center;verticalAlign=middle;whiteSpace=wrap;rounded=0;rotation=60;labelBackgroundColor=none;fontColor=#1D3557;" parent="1" vertex="1">
          <mxGeometry x="620" y="834" width="60" height="30" as="geometry" />
        </mxCell>
        <mxCell id="C0oqWAfK8oSzfUO2mAY3-42" value="&quot;Include&quot;" style="text;html=1;strokeColor=none;fillColor=none;align=center;verticalAlign=middle;whiteSpace=wrap;rounded=0;rotation=-45;labelBackgroundColor=none;fontColor=#1D3557;" parent="1" vertex="1">
          <mxGeometry x="620" y="748" width="60" height="30" as="geometry" />
        </mxCell>
        <mxCell id="C0oqWAfK8oSzfUO2mAY3-43" value="Data Producer" style="shape=umlActor;verticalLabelPosition=bottom;verticalAlign=top;html=1;outlineConnect=0;labelBackgroundColor=none;fillColor=#A8DADC;strokeColor=#457B9D;fontColor=#1D3557;" parent="1" vertex="1">
          <mxGeometry x="233" y="1205" width="30" height="60" as="geometry" />
        </mxCell>
        <mxCell id="C0oqWAfK8oSzfUO2mAY3-44" value="" style="ellipse;whiteSpace=wrap;html=1;labelBackgroundColor=none;fillColor=#A8DADC;strokeColor=#457B9D;fontColor=#1D3557;" parent="1" vertex="1">
          <mxGeometry x="363" y="1165" width="126" height="50" as="geometry" />
        </mxCell>
        <mxCell id="C0oqWAfK8oSzfUO2mAY3-45" value="Adding Data" style="text;html=1;strokeColor=none;fillColor=none;align=center;verticalAlign=middle;whiteSpace=wrap;rounded=0;labelBackgroundColor=none;fontColor=#1D3557;" parent="1" vertex="1">
          <mxGeometry x="396" y="1175" width="60" height="30" as="geometry" />
        </mxCell>
        <mxCell id="C0oqWAfK8oSzfUO2mAY3-46" value="" style="ellipse;whiteSpace=wrap;html=1;labelBackgroundColor=none;fillColor=#A8DADC;strokeColor=#457B9D;fontColor=#1D3557;" parent="1" vertex="1">
          <mxGeometry x="566" y="1140" width="126" height="50" as="geometry" />
        </mxCell>
        <mxCell id="C0oqWAfK8oSzfUO2mAY3-47" value="Adding From .Numbers/.xls" style="text;html=1;strokeColor=none;fillColor=none;align=center;verticalAlign=middle;whiteSpace=wrap;rounded=0;labelBackgroundColor=none;fontColor=#1D3557;" parent="1" vertex="1">
          <mxGeometry x="592.5" y="1150" width="73" height="30" as="geometry" />
        </mxCell>
        <mxCell id="C0oqWAfK8oSzfUO2mAY3-48" value="" style="endArrow=classic;html=1;rounded=0;entryX=1;entryY=0;entryDx=0;entryDy=0;exitX=0;exitY=0.5;exitDx=0;exitDy=0;labelBackgroundColor=none;strokeColor=#457B9D;fontColor=default;" parent="1" source="C0oqWAfK8oSzfUO2mAY3-46" target="C0oqWAfK8oSzfUO2mAY3-44" edge="1">
          <mxGeometry width="50" height="50" relative="1" as="geometry">
            <mxPoint x="512" y="1188" as="sourcePoint" />
            <mxPoint x="562" y="1138" as="targetPoint" />
          </mxGeometry>
        </mxCell>
        <mxCell id="C0oqWAfK8oSzfUO2mAY3-49" value="" style="ellipse;whiteSpace=wrap;html=1;labelBackgroundColor=none;fillColor=#A8DADC;strokeColor=#457B9D;fontColor=#1D3557;" parent="1" vertex="1">
          <mxGeometry x="572.5" y="1226" width="126" height="50" as="geometry" />
        </mxCell>
        <mxCell id="C0oqWAfK8oSzfUO2mAY3-50" value="Adding Row by Row Using UI" style="text;html=1;strokeColor=none;fillColor=none;align=center;verticalAlign=middle;whiteSpace=wrap;rounded=0;labelBackgroundColor=none;fontColor=#1D3557;" parent="1" vertex="1">
          <mxGeometry x="596.25" y="1238" width="78.5" height="31" as="geometry" />
        </mxCell>
        <mxCell id="C0oqWAfK8oSzfUO2mAY3-51" value="" style="endArrow=classic;html=1;rounded=0;exitX=0;exitY=0.5;exitDx=0;exitDy=0;entryX=1;entryY=1;entryDx=0;entryDy=0;labelBackgroundColor=none;strokeColor=#457B9D;fontColor=default;" parent="1" source="C0oqWAfK8oSzfUO2mAY3-49" target="C0oqWAfK8oSzfUO2mAY3-44" edge="1">
          <mxGeometry width="50" height="50" relative="1" as="geometry">
            <mxPoint x="494" y="1282" as="sourcePoint" />
            <mxPoint x="494" y="1192" as="targetPoint" />
          </mxGeometry>
        </mxCell>
        <mxCell id="C0oqWAfK8oSzfUO2mAY3-60" value="" style="endArrow=none;html=1;rounded=0;entryX=0;entryY=0.5;entryDx=0;entryDy=0;labelBackgroundColor=none;strokeColor=#457B9D;fontColor=default;" parent="1" target="C0oqWAfK8oSzfUO2mAY3-44" edge="1">
          <mxGeometry width="50" height="50" relative="1" as="geometry">
            <mxPoint x="269" y="1242" as="sourcePoint" />
            <mxPoint x="369" y="1302" as="targetPoint" />
          </mxGeometry>
        </mxCell>
        <mxCell id="C0oqWAfK8oSzfUO2mAY3-61" value="Editor" style="shape=umlActor;verticalLabelPosition=bottom;verticalAlign=top;html=1;outlineConnect=0;labelBackgroundColor=none;fillColor=#A8DADC;strokeColor=#457B9D;fontColor=#1D3557;" parent="1" vertex="1">
          <mxGeometry x="233" y="1821.5" width="30" height="60" as="geometry" />
        </mxCell>
        <mxCell id="C0oqWAfK8oSzfUO2mAY3-62" value="" style="ellipse;whiteSpace=wrap;html=1;labelBackgroundColor=none;fillColor=#A8DADC;strokeColor=#457B9D;fontColor=#1D3557;" parent="1" vertex="1">
          <mxGeometry x="356" y="1793.25" width="126" height="50" as="geometry" />
        </mxCell>
        <mxCell id="C0oqWAfK8oSzfUO2mAY3-63" value="Working&lt;br&gt;With Limits" style="text;html=1;strokeColor=none;fillColor=none;align=center;verticalAlign=middle;whiteSpace=wrap;rounded=0;labelBackgroundColor=none;fontColor=#1D3557;" parent="1" vertex="1">
          <mxGeometry x="386" y="1803.13" width="68" height="30.25" as="geometry" />
        </mxCell>
        <mxCell id="C0oqWAfK8oSzfUO2mAY3-65" value="" style="ellipse;whiteSpace=wrap;html=1;labelBackgroundColor=none;fillColor=#A8DADC;strokeColor=#457B9D;fontColor=#1D3557;" parent="1" vertex="1">
          <mxGeometry x="943.25" y="1671.25" width="201.5" height="78" as="geometry" />
        </mxCell>
        <mxCell id="C0oqWAfK8oSzfUO2mAY3-66" value="Identifying Min and Max&lt;br&gt;&amp;nbsp;Limits and its dates for New Position for single&lt;br&gt;Department Only" style="text;html=1;strokeColor=none;fillColor=none;align=center;verticalAlign=middle;whiteSpace=wrap;rounded=0;labelBackgroundColor=none;fontColor=#1D3557;" parent="1" vertex="1">
          <mxGeometry x="947.25" y="1670" width="189" height="74.75" as="geometry" />
        </mxCell>
        <mxCell id="C0oqWAfK8oSzfUO2mAY3-67" value="" style="ellipse;whiteSpace=wrap;html=1;labelBackgroundColor=none;fillColor=#A8DADC;strokeColor=#457B9D;fontColor=#1D3557;" parent="1" vertex="1">
          <mxGeometry x="680.75" y="1730" width="180" height="71" as="geometry" />
        </mxCell>
        <mxCell id="C0oqWAfK8oSzfUO2mAY3-68" value="Identifying Min and&amp;nbsp;&lt;br&gt;Max Limits and its dates for Each New Position" style="text;html=1;strokeColor=none;fillColor=none;align=center;verticalAlign=middle;whiteSpace=wrap;rounded=0;labelBackgroundColor=none;fontColor=#1D3557;" parent="1" vertex="1">
          <mxGeometry x="706.75" y="1742.5" width="127.87" height="46" as="geometry" />
        </mxCell>
        <mxCell id="C0oqWAfK8oSzfUO2mAY3-69" value="" style="ellipse;whiteSpace=wrap;html=1;labelBackgroundColor=none;fillColor=#A8DADC;strokeColor=#457B9D;fontColor=#1D3557;" parent="1" vertex="1">
          <mxGeometry x="954.38" y="1772.88" width="201.5" height="78" as="geometry" />
        </mxCell>
        <mxCell id="C0oqWAfK8oSzfUO2mAY3-70" value="Identifying Min and Max&lt;br&gt;Limits and its dates for New Position for each Department where &lt;br&gt;it Uses" style="text;html=1;strokeColor=none;fillColor=none;align=center;verticalAlign=middle;whiteSpace=wrap;rounded=0;labelBackgroundColor=none;fontColor=#1D3557;" parent="1" vertex="1">
          <mxGeometry x="958.38" y="1773.88" width="197.25" height="76" as="geometry" />
        </mxCell>
        <mxCell id="C0oqWAfK8oSzfUO2mAY3-71" value="" style="endArrow=classic;html=1;rounded=0;entryX=1;entryY=0;entryDx=0;entryDy=0;labelBackgroundColor=none;strokeColor=#457B9D;fontColor=default;exitX=0;exitY=0.5;exitDx=0;exitDy=0;" parent="1" target="C0oqWAfK8oSzfUO2mAY3-67" edge="1" source="C0oqWAfK8oSzfUO2mAY3-66">
          <mxGeometry width="50" height="50" relative="1" as="geometry">
            <mxPoint x="950" y="1680.5" as="sourcePoint" />
            <mxPoint x="978" y="1810.75" as="targetPoint" />
          </mxGeometry>
        </mxCell>
        <mxCell id="C0oqWAfK8oSzfUO2mAY3-72" value="" style="endArrow=classic;html=1;rounded=0;entryX=1;entryY=1;entryDx=0;entryDy=0;exitX=0;exitY=0.5;exitDx=0;exitDy=0;labelBackgroundColor=none;strokeColor=#457B9D;fontColor=default;" parent="1" source="C0oqWAfK8oSzfUO2mAY3-70" target="C0oqWAfK8oSzfUO2mAY3-67" edge="1">
          <mxGeometry width="50" height="50" relative="1" as="geometry">
            <mxPoint x="883" y="1894.75" as="sourcePoint" />
            <mxPoint x="933" y="1844.75" as="targetPoint" />
          </mxGeometry>
        </mxCell>
        <mxCell id="C0oqWAfK8oSzfUO2mAY3-85" value="" style="endArrow=none;dashed=1;html=1;dashPattern=1 3;strokeWidth=2;rounded=0;exitX=1;exitY=0.5;exitDx=0;exitDy=0;entryX=0;entryY=0.5;entryDx=0;entryDy=0;labelBackgroundColor=none;strokeColor=#457B9D;fontColor=default;" parent="1" source="C0oqWAfK8oSzfUO2mAY3-62" target="C0oqWAfK8oSzfUO2mAY3-67" edge="1">
          <mxGeometry width="50" height="50" relative="1" as="geometry">
            <mxPoint x="565" y="1870" as="sourcePoint" />
            <mxPoint x="615" y="1820" as="targetPoint" />
          </mxGeometry>
        </mxCell>
        <mxCell id="C0oqWAfK8oSzfUO2mAY3-86" value="" style="ellipse;whiteSpace=wrap;html=1;labelBackgroundColor=none;fillColor=#A8DADC;strokeColor=#457B9D;fontColor=#1D3557;" parent="1" vertex="1">
          <mxGeometry x="356" y="1936.1200000000001" width="126" height="50" as="geometry" />
        </mxCell>
        <mxCell id="C0oqWAfK8oSzfUO2mAY3-87" value="Working&amp;nbsp;&lt;br&gt;With Orders" style="text;html=1;strokeColor=none;fillColor=none;align=center;verticalAlign=middle;whiteSpace=wrap;rounded=0;labelBackgroundColor=none;fontColor=#1D3557;" parent="1" vertex="1">
          <mxGeometry x="378.5" y="1947.8700000000001" width="81" height="26.5" as="geometry" />
        </mxCell>
        <mxCell id="C0oqWAfK8oSzfUO2mAY3-90" value="" style="ellipse;whiteSpace=wrap;html=1;labelBackgroundColor=none;fillColor=#A8DADC;strokeColor=#457B9D;fontColor=#1D3557;" parent="1" vertex="1">
          <mxGeometry x="558" y="1897.5" width="126" height="50" as="geometry" />
        </mxCell>
        <mxCell id="C0oqWAfK8oSzfUO2mAY3-91" value="Edit Orders and its Description&lt;br&gt;if Necessary" style="text;html=1;strokeColor=none;fillColor=none;align=center;verticalAlign=middle;whiteSpace=wrap;rounded=0;labelBackgroundColor=none;fontColor=#1D3557;" parent="1" vertex="1">
          <mxGeometry x="574.25" y="1911" width="93.5" height="28.75" as="geometry" />
        </mxCell>
        <mxCell id="C0oqWAfK8oSzfUO2mAY3-92" value="" style="ellipse;whiteSpace=wrap;html=1;labelBackgroundColor=none;fillColor=#A8DADC;strokeColor=#457B9D;fontColor=#1D3557;" parent="1" vertex="1">
          <mxGeometry x="564" y="1972.5" width="126" height="50" as="geometry" />
        </mxCell>
        <mxCell id="C0oqWAfK8oSzfUO2mAY3-93" value="Verifying Orders&lt;br&gt;for sending to Data&amp;nbsp;&lt;br&gt;Producers" style="text;html=1;strokeColor=none;fillColor=none;align=center;verticalAlign=middle;whiteSpace=wrap;rounded=0;labelBackgroundColor=none;fontColor=#1D3557;" parent="1" vertex="1">
          <mxGeometry x="574.75" y="1982.5" width="114.25" height="27.5" as="geometry" />
        </mxCell>
        <mxCell id="C0oqWAfK8oSzfUO2mAY3-96" value="" style="ellipse;whiteSpace=wrap;html=1;labelBackgroundColor=none;fillColor=#A8DADC;strokeColor=#457B9D;fontColor=#1D3557;" parent="1" vertex="1">
          <mxGeometry x="817.25" y="1843.25" width="126" height="50" as="geometry" />
        </mxCell>
        <mxCell id="C0oqWAfK8oSzfUO2mAY3-97" value="Prefilled Order Template" style="text;html=1;strokeColor=none;fillColor=none;align=center;verticalAlign=middle;whiteSpace=wrap;rounded=0;labelBackgroundColor=none;fontColor=#1D3557;" parent="1" vertex="1">
          <mxGeometry x="828" y="1853.25" width="104.5" height="26.25" as="geometry" />
        </mxCell>
        <mxCell id="C0oqWAfK8oSzfUO2mAY3-98" value="" style="ellipse;whiteSpace=wrap;html=1;labelBackgroundColor=none;fillColor=#A8DADC;strokeColor=#457B9D;fontColor=#1D3557;" parent="1" vertex="1">
          <mxGeometry x="821" y="1964.25" width="126" height="50" as="geometry" />
        </mxCell>
        <mxCell id="C0oqWAfK8oSzfUO2mAY3-99" value="Text Description" style="text;html=1;strokeColor=none;fillColor=none;align=center;verticalAlign=middle;whiteSpace=wrap;rounded=0;labelBackgroundColor=none;fontColor=#1D3557;" parent="1" vertex="1">
          <mxGeometry x="831.75" y="1974.25" width="104.5" height="26.25" as="geometry" />
        </mxCell>
        <mxCell id="C0oqWAfK8oSzfUO2mAY3-109" value="" style="endArrow=none;dashed=1;html=1;dashPattern=1 3;strokeWidth=2;rounded=0;exitX=1;exitY=0.5;exitDx=0;exitDy=0;entryX=0;entryY=0.5;entryDx=0;entryDy=0;labelBackgroundColor=none;strokeColor=#457B9D;fontColor=default;" parent="1" source="C0oqWAfK8oSzfUO2mAY3-86" target="C0oqWAfK8oSzfUO2mAY3-90" edge="1">
          <mxGeometry width="50" height="50" relative="1" as="geometry">
            <mxPoint x="529" y="2080" as="sourcePoint" />
            <mxPoint x="579" y="2030" as="targetPoint" />
          </mxGeometry>
        </mxCell>
        <mxCell id="C0oqWAfK8oSzfUO2mAY3-110" value="" style="endArrow=none;dashed=1;html=1;dashPattern=1 3;strokeWidth=2;rounded=0;exitX=1;exitY=0.5;exitDx=0;exitDy=0;entryX=0;entryY=0.5;entryDx=0;entryDy=0;labelBackgroundColor=none;strokeColor=#457B9D;fontColor=default;" parent="1" source="C0oqWAfK8oSzfUO2mAY3-86" target="C0oqWAfK8oSzfUO2mAY3-92" edge="1">
          <mxGeometry width="50" height="50" relative="1" as="geometry">
            <mxPoint x="549" y="2120" as="sourcePoint" />
            <mxPoint x="599" y="2070" as="targetPoint" />
          </mxGeometry>
        </mxCell>
        <mxCell id="C0oqWAfK8oSzfUO2mAY3-111" value="" style="endArrow=none;html=1;rounded=0;exitX=1;exitY=0.3333333333333333;exitDx=0;exitDy=0;exitPerimeter=0;entryX=0;entryY=0.5;entryDx=0;entryDy=0;labelBackgroundColor=none;strokeColor=#457B9D;fontColor=default;" parent="1" source="C0oqWAfK8oSzfUO2mAY3-61" target="C0oqWAfK8oSzfUO2mAY3-62" edge="1">
          <mxGeometry width="50" height="50" relative="1" as="geometry">
            <mxPoint x="359" y="1870" as="sourcePoint" />
            <mxPoint x="409" y="1820" as="targetPoint" />
          </mxGeometry>
        </mxCell>
        <mxCell id="C0oqWAfK8oSzfUO2mAY3-112" value="" style="endArrow=none;html=1;rounded=0;entryX=0;entryY=0.5;entryDx=0;entryDy=0;labelBackgroundColor=none;strokeColor=#457B9D;fontColor=default;" parent="1" source="C0oqWAfK8oSzfUO2mAY3-61" target="C0oqWAfK8oSzfUO2mAY3-86" edge="1">
          <mxGeometry width="50" height="50" relative="1" as="geometry">
            <mxPoint x="349" y="1920" as="sourcePoint" />
            <mxPoint x="399" y="1870" as="targetPoint" />
          </mxGeometry>
        </mxCell>
        <mxCell id="C0oqWAfK8oSzfUO2mAY3-113" value="" style="ellipse;whiteSpace=wrap;html=1;labelBackgroundColor=none;fillColor=#A8DADC;strokeColor=#457B9D;fontColor=#1D3557;" parent="1" vertex="1">
          <mxGeometry x="363" y="1340" width="126" height="50" as="geometry" />
        </mxCell>
        <mxCell id="C0oqWAfK8oSzfUO2mAY3-114" value="Receiving Orders From Editor" style="text;html=1;strokeColor=none;fillColor=none;align=center;verticalAlign=middle;whiteSpace=wrap;rounded=0;labelBackgroundColor=none;fontColor=#1D3557;" parent="1" vertex="1">
          <mxGeometry x="385.5" y="1351.75" width="81" height="26.5" as="geometry" />
        </mxCell>
        <mxCell id="C0oqWAfK8oSzfUO2mAY3-115" value="" style="ellipse;whiteSpace=wrap;html=1;labelBackgroundColor=none;fillColor=#A8DADC;strokeColor=#457B9D;fontColor=#1D3557;" parent="1" vertex="1">
          <mxGeometry x="568.88" y="1301.75" width="126" height="50" as="geometry" />
        </mxCell>
        <mxCell id="C0oqWAfK8oSzfUO2mAY3-116" value="Making Order" style="text;html=1;strokeColor=none;fillColor=none;align=center;verticalAlign=middle;whiteSpace=wrap;rounded=0;labelBackgroundColor=none;fontColor=#1D3557;" parent="1" vertex="1">
          <mxGeometry x="591.38" y="1313.5" width="81" height="26.5" as="geometry" />
        </mxCell>
        <mxCell id="C0oqWAfK8oSzfUO2mAY3-117" value="" style="ellipse;whiteSpace=wrap;html=1;labelBackgroundColor=none;fillColor=#A8DADC;strokeColor=#457B9D;fontColor=#1D3557;" parent="1" vertex="1">
          <mxGeometry x="568.88" y="1390" width="126" height="50" as="geometry" />
        </mxCell>
        <mxCell id="C0oqWAfK8oSzfUO2mAY3-118" value="Sending Order to Adjustment" style="text;html=1;strokeColor=none;fillColor=none;align=center;verticalAlign=middle;whiteSpace=wrap;rounded=0;labelBackgroundColor=none;fontColor=#1D3557;" parent="1" vertex="1">
          <mxGeometry x="591.38" y="1401.75" width="81" height="26.5" as="geometry" />
        </mxCell>
        <mxCell id="C0oqWAfK8oSzfUO2mAY3-119" value="" style="endArrow=none;html=1;rounded=0;entryX=0;entryY=0.5;entryDx=0;entryDy=0;labelBackgroundColor=none;strokeColor=#457B9D;fontColor=default;" parent="1" target="C0oqWAfK8oSzfUO2mAY3-113" edge="1">
          <mxGeometry width="50" height="50" relative="1" as="geometry">
            <mxPoint x="269" y="1260" as="sourcePoint" />
            <mxPoint x="329" y="1410" as="targetPoint" />
          </mxGeometry>
        </mxCell>
        <mxCell id="C0oqWAfK8oSzfUO2mAY3-120" value="" style="endArrow=classic;html=1;rounded=0;exitX=0;exitY=0.5;exitDx=0;exitDy=0;entryX=1;entryY=0;entryDx=0;entryDy=0;labelBackgroundColor=none;strokeColor=#457B9D;fontColor=default;" parent="1" source="C0oqWAfK8oSzfUO2mAY3-115" target="C0oqWAfK8oSzfUO2mAY3-113" edge="1">
          <mxGeometry width="50" height="50" relative="1" as="geometry">
            <mxPoint x="469" y="1490" as="sourcePoint" />
            <mxPoint x="519" y="1440" as="targetPoint" />
          </mxGeometry>
        </mxCell>
        <mxCell id="C0oqWAfK8oSzfUO2mAY3-121" value="" style="endArrow=classic;html=1;rounded=0;entryX=1;entryY=1;entryDx=0;entryDy=0;exitX=0;exitY=0.5;exitDx=0;exitDy=0;labelBackgroundColor=none;strokeColor=#457B9D;fontColor=default;" parent="1" source="C0oqWAfK8oSzfUO2mAY3-117" target="C0oqWAfK8oSzfUO2mAY3-113" edge="1">
          <mxGeometry width="50" height="50" relative="1" as="geometry">
            <mxPoint x="509" y="1480" as="sourcePoint" />
            <mxPoint x="559" y="1430" as="targetPoint" />
          </mxGeometry>
        </mxCell>
        <mxCell id="C0oqWAfK8oSzfUO2mAY3-122" value="" style="ellipse;whiteSpace=wrap;html=1;labelBackgroundColor=none;fillColor=#A8DADC;strokeColor=#457B9D;fontColor=#1D3557;" parent="1" vertex="1">
          <mxGeometry x="479.00000000000006" y="2160" width="157.13" height="59.75" as="geometry" />
        </mxCell>
        <mxCell id="C0oqWAfK8oSzfUO2mAY3-123" value="Receiving Challenged&lt;br&gt;Orders From Data Producer" style="text;html=1;strokeColor=none;fillColor=none;align=center;verticalAlign=middle;whiteSpace=wrap;rounded=0;labelBackgroundColor=none;fontColor=#1D3557;" parent="1" vertex="1">
          <mxGeometry x="494.36999999999995" y="2175" width="126.38" height="29.75" as="geometry" />
        </mxCell>
        <mxCell id="C0oqWAfK8oSzfUO2mAY3-124" value="" style="ellipse;whiteSpace=wrap;html=1;labelBackgroundColor=none;fillColor=#A8DADC;strokeColor=#457B9D;fontColor=#1D3557;" parent="1" vertex="1">
          <mxGeometry x="694.8799999999999" y="2190.13" width="157.13" height="59.75" as="geometry" />
        </mxCell>
        <mxCell id="C0oqWAfK8oSzfUO2mAY3-125" value="Familiarization With The Problem" style="text;html=1;strokeColor=none;fillColor=none;align=center;verticalAlign=middle;whiteSpace=wrap;rounded=0;labelBackgroundColor=none;fontColor=#1D3557;" parent="1" vertex="1">
          <mxGeometry x="710.2499999999998" y="2205.13" width="126.38" height="29.75" as="geometry" />
        </mxCell>
        <mxCell id="C0oqWAfK8oSzfUO2mAY3-126" value="" style="endArrow=none;dashed=1;html=1;dashPattern=1 3;strokeWidth=2;rounded=0;entryX=1;entryY=0.5;entryDx=0;entryDy=0;exitX=0;exitY=0.5;exitDx=0;exitDy=0;labelBackgroundColor=none;strokeColor=#457B9D;fontColor=default;" parent="1" source="C0oqWAfK8oSzfUO2mAY3-122" target="C0oqWAfK8oSzfUO2mAY3-86" edge="1">
          <mxGeometry width="50" height="50" relative="1" as="geometry">
            <mxPoint x="359" y="2120" as="sourcePoint" />
            <mxPoint x="409" y="2070" as="targetPoint" />
          </mxGeometry>
        </mxCell>
        <mxCell id="C0oqWAfK8oSzfUO2mAY3-127" value="" style="endArrow=none;dashed=1;html=1;dashPattern=1 3;strokeWidth=2;rounded=0;exitX=1;exitY=0.5;exitDx=0;exitDy=0;entryX=0;entryY=0.5;entryDx=0;entryDy=0;labelBackgroundColor=none;strokeColor=#457B9D;fontColor=default;" parent="1" source="C0oqWAfK8oSzfUO2mAY3-122" target="C0oqWAfK8oSzfUO2mAY3-124" edge="1">
          <mxGeometry width="50" height="50" relative="1" as="geometry">
            <mxPoint x="636.25" y="2320" as="sourcePoint" />
            <mxPoint x="686.25" y="2270" as="targetPoint" />
          </mxGeometry>
        </mxCell>
        <mxCell id="C0oqWAfK8oSzfUO2mAY3-128" value="" style="ellipse;whiteSpace=wrap;html=1;labelBackgroundColor=none;fillColor=#A8DADC;strokeColor=#457B9D;fontColor=#1D3557;" parent="1" vertex="1">
          <mxGeometry x="910.6299999999999" y="2110.13" width="157.13" height="59.75" as="geometry" />
        </mxCell>
        <mxCell id="C0oqWAfK8oSzfUO2mAY3-129" value="Correct Order Volume" style="text;html=1;strokeColor=none;fillColor=none;align=center;verticalAlign=middle;whiteSpace=wrap;rounded=0;labelBackgroundColor=none;fontColor=#1D3557;" parent="1" vertex="1">
          <mxGeometry x="925.9999999999998" y="2125.13" width="126.38" height="29.75" as="geometry" />
        </mxCell>
        <mxCell id="C0oqWAfK8oSzfUO2mAY3-130" value="" style="ellipse;whiteSpace=wrap;html=1;labelBackgroundColor=none;fillColor=#A8DADC;strokeColor=#457B9D;fontColor=#1D3557;" parent="1" vertex="1">
          <mxGeometry x="910.6199999999999" y="2190.13" width="157.13" height="59.75" as="geometry" />
        </mxCell>
        <mxCell id="C0oqWAfK8oSzfUO2mAY3-131" value="Correct Order Positions" style="text;html=1;strokeColor=none;fillColor=none;align=center;verticalAlign=middle;whiteSpace=wrap;rounded=0;labelBackgroundColor=none;fontColor=#1D3557;" parent="1" vertex="1">
          <mxGeometry x="925.9899999999998" y="2205.13" width="126.38" height="29.75" as="geometry" />
        </mxCell>
        <mxCell id="C0oqWAfK8oSzfUO2mAY3-132" value="" style="ellipse;whiteSpace=wrap;html=1;labelBackgroundColor=none;fillColor=#A8DADC;strokeColor=#457B9D;fontColor=#1D3557;" parent="1" vertex="1">
          <mxGeometry x="910.6299999999999" y="2270.13" width="157.13" height="59.75" as="geometry" />
        </mxCell>
        <mxCell id="C0oqWAfK8oSzfUO2mAY3-133" value="Correct Text Description" style="text;html=1;strokeColor=none;fillColor=none;align=center;verticalAlign=middle;whiteSpace=wrap;rounded=0;labelBackgroundColor=none;fontColor=#1D3557;" parent="1" vertex="1">
          <mxGeometry x="925.9999999999998" y="2285.13" width="126.38" height="29.75" as="geometry" />
        </mxCell>
        <mxCell id="C0oqWAfK8oSzfUO2mAY3-134" value="" style="endArrow=classic;html=1;rounded=0;entryX=1;entryY=0;entryDx=0;entryDy=0;exitX=0;exitY=0.5;exitDx=0;exitDy=0;labelBackgroundColor=none;strokeColor=#457B9D;fontColor=default;" parent="1" source="C0oqWAfK8oSzfUO2mAY3-128" target="C0oqWAfK8oSzfUO2mAY3-124" edge="1">
          <mxGeometry width="50" height="50" relative="1" as="geometry">
            <mxPoint x="750.63" y="2360.13" as="sourcePoint" />
            <mxPoint x="800.63" y="2310.13" as="targetPoint" />
          </mxGeometry>
        </mxCell>
        <mxCell id="C0oqWAfK8oSzfUO2mAY3-135" value="" style="endArrow=classic;html=1;rounded=0;entryX=1;entryY=0.5;entryDx=0;entryDy=0;exitX=0;exitY=0.5;exitDx=0;exitDy=0;labelBackgroundColor=none;strokeColor=#457B9D;fontColor=default;" parent="1" source="C0oqWAfK8oSzfUO2mAY3-130" target="C0oqWAfK8oSzfUO2mAY3-124" edge="1">
          <mxGeometry width="50" height="50" relative="1" as="geometry">
            <mxPoint x="810.63" y="2370.13" as="sourcePoint" />
            <mxPoint x="860.63" y="2320.13" as="targetPoint" />
          </mxGeometry>
        </mxCell>
        <mxCell id="C0oqWAfK8oSzfUO2mAY3-136" value="" style="endArrow=classic;html=1;rounded=0;entryX=1;entryY=1;entryDx=0;entryDy=0;exitX=0;exitY=0.5;exitDx=0;exitDy=0;labelBackgroundColor=none;strokeColor=#457B9D;fontColor=default;" parent="1" source="C0oqWAfK8oSzfUO2mAY3-132" target="C0oqWAfK8oSzfUO2mAY3-124" edge="1">
          <mxGeometry width="50" height="50" relative="1" as="geometry">
            <mxPoint x="840.63" y="2400.13" as="sourcePoint" />
            <mxPoint x="890.63" y="2350.13" as="targetPoint" />
          </mxGeometry>
        </mxCell>
        <mxCell id="C0oqWAfK8oSzfUO2mAY3-137" value="" style="endArrow=none;dashed=1;html=1;dashPattern=1 3;strokeWidth=2;rounded=0;labelBackgroundColor=none;strokeColor=#457B9D;fontColor=default;" parent="1" edge="1">
          <mxGeometry width="50" height="50" relative="1" as="geometry">
            <mxPoint x="1189" y="2270" as="sourcePoint" />
            <mxPoint x="559" y="2000" as="targetPoint" />
            <Array as="points">
              <mxPoint x="1189" y="2090" />
              <mxPoint x="559" y="2090" />
            </Array>
          </mxGeometry>
        </mxCell>
        <mxCell id="C0oqWAfK8oSzfUO2mAY3-138" value="" style="endArrow=none;dashed=1;html=1;dashPattern=1 3;strokeWidth=2;rounded=0;exitX=1;exitY=0.5;exitDx=0;exitDy=0;labelBackgroundColor=none;strokeColor=#457B9D;fontColor=default;" parent="1" source="C0oqWAfK8oSzfUO2mAY3-128" edge="1">
          <mxGeometry width="50" height="50" relative="1" as="geometry">
            <mxPoint x="1149" y="2420" as="sourcePoint" />
            <mxPoint x="1187" y="2143" as="targetPoint" />
          </mxGeometry>
        </mxCell>
        <mxCell id="C0oqWAfK8oSzfUO2mAY3-139" value="" style="endArrow=none;dashed=1;html=1;dashPattern=1 3;strokeWidth=2;rounded=0;exitX=1;exitY=0.5;exitDx=0;exitDy=0;labelBackgroundColor=none;strokeColor=#457B9D;fontColor=default;" parent="1" source="C0oqWAfK8oSzfUO2mAY3-130" edge="1">
          <mxGeometry width="50" height="50" relative="1" as="geometry">
            <mxPoint x="1109" y="2380" as="sourcePoint" />
            <mxPoint x="1185" y="2220" as="targetPoint" />
          </mxGeometry>
        </mxCell>
        <mxCell id="C0oqWAfK8oSzfUO2mAY3-140" value="" style="endArrow=none;dashed=1;html=1;dashPattern=1 3;strokeWidth=2;rounded=0;exitX=1;exitY=0.5;exitDx=0;exitDy=0;labelBackgroundColor=none;strokeColor=#457B9D;fontColor=default;" parent="1" source="C0oqWAfK8oSzfUO2mAY3-132" edge="1">
          <mxGeometry width="50" height="50" relative="1" as="geometry">
            <mxPoint x="1169" y="2450" as="sourcePoint" />
            <mxPoint x="1189" y="2270" as="targetPoint" />
            <Array as="points">
              <mxPoint x="1187" y="2300" />
            </Array>
          </mxGeometry>
        </mxCell>
        <mxCell id="C0oqWAfK8oSzfUO2mAY3-141" value="" style="ellipse;whiteSpace=wrap;html=1;labelBackgroundColor=none;fillColor=#A8DADC;strokeColor=#457B9D;fontColor=#1D3557;" parent="1" vertex="1">
          <mxGeometry x="762" y="1420" width="126" height="50" as="geometry" />
        </mxCell>
        <mxCell id="C0oqWAfK8oSzfUO2mAY3-142" value="Problem Description" style="text;html=1;strokeColor=none;fillColor=none;align=center;verticalAlign=middle;whiteSpace=wrap;rounded=0;labelBackgroundColor=none;fontColor=#1D3557;" parent="1" vertex="1">
          <mxGeometry x="784.5" y="1431.75" width="81" height="26.5" as="geometry" />
        </mxCell>
        <mxCell id="C0oqWAfK8oSzfUO2mAY3-143" value="" style="ellipse;whiteSpace=wrap;html=1;labelBackgroundColor=none;fillColor=#A8DADC;strokeColor=#457B9D;fontColor=#1D3557;" parent="1" vertex="1">
          <mxGeometry x="762" y="1350" width="126" height="50" as="geometry" />
        </mxCell>
        <mxCell id="C0oqWAfK8oSzfUO2mAY3-144" value="Received Order" style="text;html=1;strokeColor=none;fillColor=none;align=center;verticalAlign=middle;whiteSpace=wrap;rounded=0;labelBackgroundColor=none;fontColor=#1D3557;" parent="1" vertex="1">
          <mxGeometry x="784.5" y="1361.75" width="81" height="26.5" as="geometry" />
        </mxCell>
        <mxCell id="C0oqWAfK8oSzfUO2mAY3-145" value="" style="endArrow=none;dashed=1;html=1;dashPattern=1 3;strokeWidth=2;rounded=0;entryX=1;entryY=0.5;entryDx=0;entryDy=0;exitX=0;exitY=0.5;exitDx=0;exitDy=0;labelBackgroundColor=none;strokeColor=#457B9D;fontColor=default;" parent="1" source="C0oqWAfK8oSzfUO2mAY3-143" target="C0oqWAfK8oSzfUO2mAY3-117" edge="1">
          <mxGeometry width="50" height="50" relative="1" as="geometry">
            <mxPoint x="679" y="1520" as="sourcePoint" />
            <mxPoint x="729" y="1470" as="targetPoint" />
          </mxGeometry>
        </mxCell>
        <mxCell id="C0oqWAfK8oSzfUO2mAY3-146" value="" style="endArrow=none;dashed=1;html=1;dashPattern=1 3;strokeWidth=2;rounded=0;entryX=1;entryY=0.5;entryDx=0;entryDy=0;exitX=0;exitY=0.5;exitDx=0;exitDy=0;labelBackgroundColor=none;strokeColor=#457B9D;fontColor=default;" parent="1" source="C0oqWAfK8oSzfUO2mAY3-141" target="C0oqWAfK8oSzfUO2mAY3-117" edge="1">
          <mxGeometry width="50" height="50" relative="1" as="geometry">
            <mxPoint x="669" y="1530" as="sourcePoint" />
            <mxPoint x="719" y="1480" as="targetPoint" />
          </mxGeometry>
        </mxCell>
        <mxCell id="C0oqWAfK8oSzfUO2mAY3-147" value="&quot;Include&quot;" style="text;html=1;strokeColor=none;fillColor=none;align=center;verticalAlign=middle;whiteSpace=wrap;rounded=0;rotation=-30;labelBackgroundColor=none;fontColor=#1D3557;" parent="1" vertex="1">
          <mxGeometry x="690" y="1358.25" width="60" height="30" as="geometry" />
        </mxCell>
        <mxCell id="C0oqWAfK8oSzfUO2mAY3-148" value="&quot;Include&quot;" style="text;html=1;strokeColor=none;fillColor=none;align=center;verticalAlign=middle;whiteSpace=wrap;rounded=0;rotation=30;labelBackgroundColor=none;fontColor=#1D3557;" parent="1" vertex="1">
          <mxGeometry x="692" y="1440" width="60" height="30" as="geometry" />
        </mxCell>
        <mxCell id="C0oqWAfK8oSzfUO2mAY3-149" value="&quot;Include&quot;" style="text;html=1;strokeColor=none;fillColor=none;align=center;verticalAlign=middle;whiteSpace=wrap;rounded=0;rotation=-10;labelBackgroundColor=none;fontColor=#1D3557;" parent="1" vertex="1">
          <mxGeometry x="553" y="1756" width="60" height="30" as="geometry" />
        </mxCell>
        <mxCell id="C0oqWAfK8oSzfUO2mAY3-157" value="&quot;Include&quot;" style="text;html=1;strokeColor=none;fillColor=none;align=center;verticalAlign=middle;whiteSpace=wrap;rounded=0;rotation=0;labelBackgroundColor=none;fontColor=#1D3557;" parent="1" vertex="1">
          <mxGeometry x="1095.88" y="2100.13" width="60" height="30" as="geometry" />
        </mxCell>
        <mxCell id="C0oqWAfK8oSzfUO2mAY3-158" value="&quot;Include&quot;" style="text;html=1;strokeColor=none;fillColor=none;align=center;verticalAlign=middle;whiteSpace=wrap;rounded=0;rotation=0;labelBackgroundColor=none;fontColor=#1D3557;" parent="1" vertex="1">
          <mxGeometry x="1097.63" y="2180.13" width="60" height="30" as="geometry" />
        </mxCell>
        <mxCell id="C0oqWAfK8oSzfUO2mAY3-159" value="&quot;Include&quot;" style="text;html=1;strokeColor=none;fillColor=none;align=center;verticalAlign=middle;whiteSpace=wrap;rounded=0;rotation=0;labelBackgroundColor=none;fontColor=#1D3557;" parent="1" vertex="1">
          <mxGeometry x="1099.63" y="2260.13" width="60" height="30" as="geometry" />
        </mxCell>
        <mxCell id="C0oqWAfK8oSzfUO2mAY3-160" value="&quot;Include&quot;" style="text;html=1;strokeColor=none;fillColor=none;align=center;verticalAlign=middle;whiteSpace=wrap;rounded=0;rotation=30;labelBackgroundColor=none;fontColor=#1D3557;" parent="1" vertex="1">
          <mxGeometry x="644" y="2169.88" width="60" height="30" as="geometry" />
        </mxCell>
        <mxCell id="C0oqWAfK8oSzfUO2mAY3-161" value="&quot;Include&quot;" style="text;html=1;strokeColor=none;fillColor=none;align=center;verticalAlign=middle;whiteSpace=wrap;rounded=0;rotation=90;labelBackgroundColor=none;fontColor=#1D3557;" parent="1" vertex="1">
          <mxGeometry x="470" y="2055" width="60" height="30" as="geometry" />
        </mxCell>
        <mxCell id="C0oqWAfK8oSzfUO2mAY3-162" value="&quot;Include&quot;" style="text;html=1;strokeColor=none;fillColor=none;align=center;verticalAlign=middle;whiteSpace=wrap;rounded=0;rotation=-25;labelBackgroundColor=none;fontColor=#1D3557;" parent="1" vertex="1">
          <mxGeometry x="500" y="1934" width="60" height="30" as="geometry" />
        </mxCell>
        <mxCell id="C0oqWAfK8oSzfUO2mAY3-163" value="&quot;Include&quot;" style="text;html=1;strokeColor=none;fillColor=none;align=center;verticalAlign=middle;whiteSpace=wrap;rounded=0;rotation=30;labelBackgroundColor=none;fontColor=#1D3557;" parent="1" vertex="1">
          <mxGeometry x="489" y="1980" width="60" height="30" as="geometry" />
        </mxCell>
        <mxCell id="C0oqWAfK8oSzfUO2mAY3-164" value="" style="endArrow=classic;html=1;rounded=0;exitX=0.5;exitY=1;exitDx=0;exitDy=0;labelBackgroundColor=none;strokeColor=#457B9D;fontColor=default;" parent="1" source="C0oqWAfK8oSzfUO2mAY3-92" target="C0oqWAfK8oSzfUO2mAY3-43" edge="1">
          <mxGeometry width="50" height="50" relative="1" as="geometry">
            <mxPoint x="309" y="2060" as="sourcePoint" />
            <mxPoint x="199" y="1390" as="targetPoint" />
            <Array as="points">
              <mxPoint x="627" y="2125" />
              <mxPoint x="373" y="2125" />
              <mxPoint x="143" y="2125" />
              <mxPoint x="149" y="1235" />
            </Array>
          </mxGeometry>
        </mxCell>
        <mxCell id="C0oqWAfK8oSzfUO2mAY3-165" value="" style="endArrow=classic;html=1;rounded=0;entryX=0.5;entryY=0;entryDx=0;entryDy=0;entryPerimeter=0;exitX=0.5;exitY=1;exitDx=0;exitDy=0;labelBackgroundColor=none;strokeColor=#457B9D;fontColor=default;" parent="1" source="C0oqWAfK8oSzfUO2mAY3-117" target="C0oqWAfK8oSzfUO2mAY3-61" edge="1">
          <mxGeometry width="50" height="50" relative="1" as="geometry">
            <mxPoint x="631.8799999999999" y="1560" as="sourcePoint" />
            <mxPoint x="559" y="1630" as="targetPoint" />
            <Array as="points">
              <mxPoint x="632" y="1474" />
              <mxPoint x="519" y="1474" />
              <mxPoint x="519" y="1610" />
              <mxPoint x="249" y="1610" />
            </Array>
          </mxGeometry>
        </mxCell>
        <mxCell id="RdfG1WQIROKjiYzc3zPx-4" value="" style="ellipse;whiteSpace=wrap;html=1;labelBackgroundColor=none;fillColor=#A8DADC;strokeColor=#457B9D;fontColor=#1D3557;" parent="1" vertex="1">
          <mxGeometry x="678" y="664" width="126" height="50" as="geometry" />
        </mxCell>
        <mxCell id="RdfG1WQIROKjiYzc3zPx-5" value="Checking&lt;br&gt;Task Manager Status" style="text;html=1;strokeColor=none;fillColor=none;align=center;verticalAlign=middle;whiteSpace=wrap;rounded=0;labelBackgroundColor=none;fontColor=#1D3557;" parent="1" vertex="1">
          <mxGeometry x="699" y="674.5" width="84" height="29" as="geometry" />
        </mxCell>
        <mxCell id="RdfG1WQIROKjiYzc3zPx-6" value="" style="endArrow=none;dashed=1;html=1;dashPattern=1 3;strokeWidth=2;rounded=0;entryX=0;entryY=0.5;entryDx=0;entryDy=0;exitX=0.73;exitY=0.001;exitDx=0;exitDy=0;exitPerimeter=0;labelBackgroundColor=none;strokeColor=#457B9D;fontColor=default;" parent="1" source="C0oqWAfK8oSzfUO2mAY3-22" target="RdfG1WQIROKjiYzc3zPx-4" edge="1">
          <mxGeometry width="50" height="50" relative="1" as="geometry">
            <mxPoint x="556" y="754" as="sourcePoint" />
            <mxPoint x="606" y="704" as="targetPoint" />
          </mxGeometry>
        </mxCell>
        <mxCell id="RdfG1WQIROKjiYzc3zPx-7" value="&quot;Include&quot;" style="text;html=1;strokeColor=none;fillColor=none;align=center;verticalAlign=middle;whiteSpace=wrap;rounded=0;rotation=-45;labelBackgroundColor=none;fontColor=#1D3557;" parent="1" vertex="1">
          <mxGeometry x="591.25" y="714" width="60" height="30" as="geometry" />
        </mxCell>
        <mxCell id="RdfG1WQIROKjiYzc3zPx-8" value="" style="ellipse;whiteSpace=wrap;html=1;labelBackgroundColor=none;fillColor=#A8DADC;strokeColor=#457B9D;fontColor=#1D3557;" parent="1" vertex="1">
          <mxGeometry x="352" y="993" width="126" height="50" as="geometry" />
        </mxCell>
        <mxCell id="RdfG1WQIROKjiYzc3zPx-9" value="Receiving User Complaints" style="text;html=1;strokeColor=none;fillColor=none;align=center;verticalAlign=middle;whiteSpace=wrap;rounded=0;labelBackgroundColor=none;fontColor=#1D3557;" parent="1" vertex="1">
          <mxGeometry x="385" y="1003" width="60" height="30" as="geometry" />
        </mxCell>
        <mxCell id="RdfG1WQIROKjiYzc3zPx-10" value="" style="endArrow=none;html=1;rounded=0;entryX=1;entryY=1;entryDx=0;entryDy=0;entryPerimeter=0;exitX=0;exitY=0.5;exitDx=0;exitDy=0;labelBackgroundColor=none;strokeColor=#457B9D;fontColor=default;" parent="1" source="RdfG1WQIROKjiYzc3zPx-8" target="C0oqWAfK8oSzfUO2mAY3-1" edge="1">
          <mxGeometry width="50" height="50" relative="1" as="geometry">
            <mxPoint x="205" y="936" as="sourcePoint" />
            <mxPoint x="262" y="764" as="targetPoint" />
          </mxGeometry>
        </mxCell>
        <mxCell id="RdfG1WQIROKjiYzc3zPx-11" value="" style="endArrow=none;dashed=1;html=1;dashPattern=1 3;strokeWidth=2;rounded=0;exitX=1;exitY=0.5;exitDx=0;exitDy=0;entryX=0;entryY=0.5;entryDx=0;entryDy=0;labelBackgroundColor=none;strokeColor=#457B9D;fontColor=default;" parent="1" source="RdfG1WQIROKjiYzc3zPx-8" target="C0oqWAfK8oSzfUO2mAY3-25" edge="1">
          <mxGeometry width="50" height="50" relative="1" as="geometry">
            <mxPoint x="537" y="1122" as="sourcePoint" />
            <mxPoint x="587" y="1072" as="targetPoint" />
          </mxGeometry>
        </mxCell>
        <mxCell id="RdfG1WQIROKjiYzc3zPx-12" value="&quot;Include&quot;" style="text;html=1;strokeColor=none;fillColor=none;align=center;verticalAlign=middle;whiteSpace=wrap;rounded=0;rotation=-61;labelBackgroundColor=none;fontColor=#1D3557;" parent="1" vertex="1">
          <mxGeometry x="454" y="940" width="60" height="30" as="geometry" />
        </mxCell>
        <mxCell id="RdfG1WQIROKjiYzc3zPx-13" value="" style="ellipse;whiteSpace=wrap;html=1;labelBackgroundColor=none;fillColor=#A8DADC;strokeColor=#457B9D;fontColor=#1D3557;" parent="1" vertex="1">
          <mxGeometry x="368.37" y="1475" width="126" height="50" as="geometry" />
        </mxCell>
        <mxCell id="RdfG1WQIROKjiYzc3zPx-14" value="Make Complaint if Something wet Wrong" style="text;html=1;strokeColor=none;fillColor=none;align=center;verticalAlign=middle;whiteSpace=wrap;rounded=0;labelBackgroundColor=none;fontColor=#1D3557;" parent="1" vertex="1">
          <mxGeometry x="382.8" y="1488" width="97.13" height="29.25" as="geometry" />
        </mxCell>
        <mxCell id="RdfG1WQIROKjiYzc3zPx-15" value="" style="ellipse;whiteSpace=wrap;html=1;labelBackgroundColor=none;fillColor=#A8DADC;strokeColor=#457B9D;fontColor=#1D3557;" parent="1" vertex="1">
          <mxGeometry x="350" y="2226" width="126" height="50" as="geometry" />
        </mxCell>
        <mxCell id="RdfG1WQIROKjiYzc3zPx-16" value="Make Complaint if Something wet Wrong" style="text;html=1;strokeColor=none;fillColor=none;align=center;verticalAlign=middle;whiteSpace=wrap;rounded=0;labelBackgroundColor=none;fontColor=#1D3557;" parent="1" vertex="1">
          <mxGeometry x="364.43" y="2239" width="97.13" height="29.25" as="geometry" />
        </mxCell>
        <mxCell id="RdfG1WQIROKjiYzc3zPx-17" value="" style="endArrow=none;html=1;rounded=0;strokeColor=#457B9D;entryX=1;entryY=1;entryDx=0;entryDy=0;entryPerimeter=0;exitX=0;exitY=0.5;exitDx=0;exitDy=0;labelBackgroundColor=none;fontColor=default;" parent="1" source="RdfG1WQIROKjiYzc3zPx-15" target="C0oqWAfK8oSzfUO2mAY3-61" edge="1">
          <mxGeometry width="50" height="50" relative="1" as="geometry">
            <mxPoint x="232" y="2325" as="sourcePoint" />
            <mxPoint x="282" y="2275" as="targetPoint" />
          </mxGeometry>
        </mxCell>
        <mxCell id="RdfG1WQIROKjiYzc3zPx-18" value="" style="endArrow=none;html=1;rounded=0;strokeColor=#457B9D;entryX=1;entryY=1;entryDx=0;entryDy=0;entryPerimeter=0;exitX=0;exitY=0.5;exitDx=0;exitDy=0;labelBackgroundColor=none;fontColor=default;" parent="1" source="RdfG1WQIROKjiYzc3zPx-13" target="C0oqWAfK8oSzfUO2mAY3-43" edge="1">
          <mxGeometry width="50" height="50" relative="1" as="geometry">
            <mxPoint x="276" y="1478" as="sourcePoint" />
            <mxPoint x="326" y="1428" as="targetPoint" />
          </mxGeometry>
        </mxCell>
        <mxCell id="RdfG1WQIROKjiYzc3zPx-20" value="" style="endArrow=classic;html=1;rounded=0;strokeColor=#457B9D;exitX=0.5;exitY=1;exitDx=0;exitDy=0;entryX=0;entryY=0.3333333333333333;entryDx=0;entryDy=0;entryPerimeter=0;labelBackgroundColor=none;fontColor=default;" parent="1" source="RdfG1WQIROKjiYzc3zPx-15" target="C0oqWAfK8oSzfUO2mAY3-1" edge="1">
          <mxGeometry width="50" height="50" relative="1" as="geometry">
            <mxPoint x="333" y="2394" as="sourcePoint" />
            <mxPoint x="148" y="671" as="targetPoint" />
            <Array as="points">
              <mxPoint x="413" y="2351" />
              <mxPoint x="80" y="2351" />
              <mxPoint x="84" y="669" />
            </Array>
          </mxGeometry>
        </mxCell>
        <mxCell id="RdfG1WQIROKjiYzc3zPx-21" value="" style="endArrow=classic;html=1;rounded=0;strokeColor=#457B9D;exitX=0.5;exitY=1;exitDx=0;exitDy=0;entryX=0;entryY=1;entryDx=0;entryDy=0;entryPerimeter=0;labelBackgroundColor=none;fontColor=default;" parent="1" source="RdfG1WQIROKjiYzc3zPx-13" target="C0oqWAfK8oSzfUO2mAY3-1" edge="1">
          <mxGeometry width="50" height="50" relative="1" as="geometry">
            <mxPoint x="322" y="1572" as="sourcePoint" />
            <mxPoint x="372" y="1522" as="targetPoint" />
            <Array as="points">
              <mxPoint x="431" y="1566" />
              <mxPoint x="183" y="1566" />
              <mxPoint x="178" y="709" />
            </Array>
          </mxGeometry>
        </mxCell>
        <mxCell id="RdfG1WQIROKjiYzc3zPx-22" value="" style="ellipse;whiteSpace=wrap;html=1;labelBackgroundColor=none;fillColor=#A8DADC;strokeColor=#457B9D;fontColor=#1D3557;" parent="1" vertex="1">
          <mxGeometry x="870" y="529.5" width="130.25" height="63" as="geometry" />
        </mxCell>
        <mxCell id="RdfG1WQIROKjiYzc3zPx-23" value="Creating Area of Responsibility (if Editor)" style="text;html=1;strokeColor=none;fillColor=none;align=center;verticalAlign=middle;whiteSpace=wrap;rounded=0;labelBackgroundColor=none;fontColor=#1D3557;" parent="1" vertex="1">
          <mxGeometry x="888.75" y="544.5" width="92.75" height="33" as="geometry" />
        </mxCell>
        <mxCell id="RdfG1WQIROKjiYzc3zPx-24" value="" style="endArrow=classic;html=1;rounded=0;strokeColor=#457B9D;entryX=1;entryY=0.5;entryDx=0;entryDy=0;exitX=0;exitY=0.5;exitDx=0;exitDy=0;labelBackgroundColor=none;fontColor=default;" parent="1" source="RdfG1WQIROKjiYzc3zPx-22" target="C0oqWAfK8oSzfUO2mAY3-15" edge="1">
          <mxGeometry width="50" height="50" relative="1" as="geometry">
            <mxPoint x="940" y="706" as="sourcePoint" />
            <mxPoint x="990" y="656" as="targetPoint" />
          </mxGeometry>
        </mxCell>
        <mxCell id="QTqEW-X_LaZdHaBKMYkh-1" value="" style="ellipse;whiteSpace=wrap;html=1;labelBackgroundColor=none;fillColor=#A8DADC;strokeColor=#457B9D;fontColor=#1D3557;" parent="1" vertex="1">
          <mxGeometry x="363" y="343" width="126" height="50" as="geometry" />
        </mxCell>
        <mxCell id="QTqEW-X_LaZdHaBKMYkh-2" value="Manage Departments" style="text;html=1;strokeColor=none;fillColor=none;align=center;verticalAlign=middle;whiteSpace=wrap;rounded=0;labelBackgroundColor=none;fontColor=#1D3557;" parent="1" vertex="1">
          <mxGeometry x="396" y="353" width="60" height="30" as="geometry" />
        </mxCell>
        <mxCell id="QTqEW-X_LaZdHaBKMYkh-3" value="" style="ellipse;whiteSpace=wrap;html=1;labelBackgroundColor=none;fillColor=#A8DADC;strokeColor=#457B9D;fontColor=#1D3557;" parent="1" vertex="1">
          <mxGeometry x="730.25" y="276" width="126" height="50" as="geometry" />
        </mxCell>
        <mxCell id="QTqEW-X_LaZdHaBKMYkh-4" value="Delete Departments" style="text;html=1;strokeColor=none;fillColor=none;align=center;verticalAlign=middle;whiteSpace=wrap;rounded=0;labelBackgroundColor=none;fontColor=#1D3557;" parent="1" vertex="1">
          <mxGeometry x="763.25" y="286" width="60" height="30" as="geometry" />
        </mxCell>
        <mxCell id="QTqEW-X_LaZdHaBKMYkh-5" value="" style="ellipse;whiteSpace=wrap;html=1;labelBackgroundColor=none;fillColor=#A8DADC;strokeColor=#457B9D;fontColor=#1D3557;" parent="1" vertex="1">
          <mxGeometry x="730.25" y="426" width="126" height="50" as="geometry" />
        </mxCell>
        <mxCell id="QTqEW-X_LaZdHaBKMYkh-6" value="Create Departments" style="text;html=1;strokeColor=none;fillColor=none;align=center;verticalAlign=middle;whiteSpace=wrap;rounded=0;labelBackgroundColor=none;fontColor=#1D3557;" parent="1" vertex="1">
          <mxGeometry x="763.25" y="436" width="60" height="30" as="geometry" />
        </mxCell>
        <mxCell id="QTqEW-X_LaZdHaBKMYkh-7" value="" style="endArrow=none;dashed=1;html=1;dashPattern=1 3;strokeWidth=2;rounded=0;exitX=1;exitY=0.5;exitDx=0;exitDy=0;entryX=0;entryY=0.5;entryDx=0;entryDy=0;labelBackgroundColor=none;strokeColor=#457B9D;fontColor=default;" parent="1" source="QTqEW-X_LaZdHaBKMYkh-1" target="QTqEW-X_LaZdHaBKMYkh-3" edge="1">
          <mxGeometry width="50" height="50" relative="1" as="geometry">
            <mxPoint x="610.25" y="466" as="sourcePoint" />
            <mxPoint x="660.25" y="416" as="targetPoint" />
          </mxGeometry>
        </mxCell>
        <mxCell id="QTqEW-X_LaZdHaBKMYkh-8" value="" style="endArrow=none;dashed=1;html=1;dashPattern=1 3;strokeWidth=2;rounded=0;exitX=1;exitY=0.5;exitDx=0;exitDy=0;entryX=0;entryY=0.5;entryDx=0;entryDy=0;labelBackgroundColor=none;strokeColor=#457B9D;fontColor=default;" parent="1" source="QTqEW-X_LaZdHaBKMYkh-1" target="QTqEW-X_LaZdHaBKMYkh-5" edge="1">
          <mxGeometry width="50" height="50" relative="1" as="geometry">
            <mxPoint x="650.25" y="486" as="sourcePoint" />
            <mxPoint x="700.25" y="436" as="targetPoint" />
          </mxGeometry>
        </mxCell>
        <mxCell id="QTqEW-X_LaZdHaBKMYkh-9" value="" style="ellipse;whiteSpace=wrap;html=1;labelBackgroundColor=none;fillColor=#A8DADC;strokeColor=#457B9D;fontColor=#1D3557;" parent="1" vertex="1">
          <mxGeometry x="730.25" y="346" width="126" height="50" as="geometry" />
        </mxCell>
        <mxCell id="QTqEW-X_LaZdHaBKMYkh-10" value="Edit Departments" style="text;html=1;strokeColor=none;fillColor=none;align=center;verticalAlign=middle;whiteSpace=wrap;rounded=0;labelBackgroundColor=none;fontColor=#1D3557;" parent="1" vertex="1">
          <mxGeometry x="763.25" y="356" width="60" height="30" as="geometry" />
        </mxCell>
        <mxCell id="QTqEW-X_LaZdHaBKMYkh-11" value="" style="endArrow=none;dashed=1;html=1;dashPattern=1 3;strokeWidth=2;rounded=0;entryX=0;entryY=0.5;entryDx=0;entryDy=0;exitX=1;exitY=0.5;exitDx=0;exitDy=0;labelBackgroundColor=none;strokeColor=#457B9D;fontColor=default;" parent="1" source="QTqEW-X_LaZdHaBKMYkh-1" target="QTqEW-X_LaZdHaBKMYkh-9" edge="1">
          <mxGeometry width="50" height="50" relative="1" as="geometry">
            <mxPoint x="700.25" y="366" as="sourcePoint" />
            <mxPoint x="780.25" y="406" as="targetPoint" />
          </mxGeometry>
        </mxCell>
        <mxCell id="QTqEW-X_LaZdHaBKMYkh-12" value="&quot;Include&quot;" style="text;html=1;strokeColor=none;fillColor=none;align=center;verticalAlign=middle;whiteSpace=wrap;rounded=0;rotation=-15;labelBackgroundColor=none;fontColor=#1D3557;" parent="1" vertex="1">
          <mxGeometry x="620.75" y="286" width="60" height="30" as="geometry" />
        </mxCell>
        <mxCell id="QTqEW-X_LaZdHaBKMYkh-13" value="&quot;Include&quot;" style="text;html=1;strokeColor=none;fillColor=none;align=center;verticalAlign=middle;whiteSpace=wrap;rounded=0;rotation=15;labelBackgroundColor=none;fontColor=#1D3557;" parent="1" vertex="1">
          <mxGeometry x="646.25" y="396" width="60" height="30" as="geometry" />
        </mxCell>
        <mxCell id="QTqEW-X_LaZdHaBKMYkh-14" value="&quot;Include&quot;" style="text;html=1;strokeColor=none;fillColor=none;align=center;verticalAlign=middle;whiteSpace=wrap;rounded=0;rotation=0;labelBackgroundColor=none;fontColor=#1D3557;" parent="1" vertex="1">
          <mxGeometry x="643" y="336" width="60" height="30" as="geometry" />
        </mxCell>
        <mxCell id="QTqEW-X_LaZdHaBKMYkh-31" value="" style="ellipse;whiteSpace=wrap;html=1;labelBackgroundColor=none;fillColor=#A8DADC;strokeColor=#457B9D;fontColor=#1D3557;" parent="1" vertex="1">
          <mxGeometry x="361" y="154" width="126" height="50" as="geometry" />
        </mxCell>
        <mxCell id="QTqEW-X_LaZdHaBKMYkh-32" value="Manage Supply" style="text;html=1;strokeColor=none;fillColor=none;align=center;verticalAlign=middle;whiteSpace=wrap;rounded=0;labelBackgroundColor=none;fontColor=#1D3557;" parent="1" vertex="1">
          <mxGeometry x="394" y="164" width="60" height="30" as="geometry" />
        </mxCell>
        <mxCell id="QTqEW-X_LaZdHaBKMYkh-33" value="" style="ellipse;whiteSpace=wrap;html=1;labelBackgroundColor=none;fillColor=#A8DADC;strokeColor=#457B9D;fontColor=#1D3557;" parent="1" vertex="1">
          <mxGeometry x="517" y="84" width="126" height="50" as="geometry" />
        </mxCell>
        <mxCell id="QTqEW-X_LaZdHaBKMYkh-34" value="Delete Supply" style="text;html=1;strokeColor=none;fillColor=none;align=center;verticalAlign=middle;whiteSpace=wrap;rounded=0;labelBackgroundColor=none;fontColor=#1D3557;" parent="1" vertex="1">
          <mxGeometry x="550" y="94" width="60" height="30" as="geometry" />
        </mxCell>
        <mxCell id="QTqEW-X_LaZdHaBKMYkh-35" value="" style="ellipse;whiteSpace=wrap;html=1;labelBackgroundColor=none;fillColor=#A8DADC;strokeColor=#457B9D;fontColor=#1D3557;" parent="1" vertex="1">
          <mxGeometry x="517" y="234" width="126" height="50" as="geometry" />
        </mxCell>
        <mxCell id="QTqEW-X_LaZdHaBKMYkh-36" value="Create Supply" style="text;html=1;strokeColor=none;fillColor=none;align=center;verticalAlign=middle;whiteSpace=wrap;rounded=0;labelBackgroundColor=none;fontColor=#1D3557;" parent="1" vertex="1">
          <mxGeometry x="550" y="244" width="60" height="30" as="geometry" />
        </mxCell>
        <mxCell id="QTqEW-X_LaZdHaBKMYkh-37" value="" style="endArrow=none;dashed=1;html=1;dashPattern=1 3;strokeWidth=2;rounded=0;exitX=1;exitY=0.5;exitDx=0;exitDy=0;entryX=0;entryY=0.5;entryDx=0;entryDy=0;labelBackgroundColor=none;strokeColor=#457B9D;fontColor=default;" parent="1" source="QTqEW-X_LaZdHaBKMYkh-31" target="QTqEW-X_LaZdHaBKMYkh-33" edge="1">
          <mxGeometry width="50" height="50" relative="1" as="geometry">
            <mxPoint x="397" y="274" as="sourcePoint" />
            <mxPoint x="447" y="224" as="targetPoint" />
          </mxGeometry>
        </mxCell>
        <mxCell id="QTqEW-X_LaZdHaBKMYkh-38" value="" style="endArrow=none;dashed=1;html=1;dashPattern=1 3;strokeWidth=2;rounded=0;exitX=1;exitY=0.5;exitDx=0;exitDy=0;entryX=0;entryY=0.5;entryDx=0;entryDy=0;labelBackgroundColor=none;strokeColor=#457B9D;fontColor=default;" parent="1" source="QTqEW-X_LaZdHaBKMYkh-31" target="QTqEW-X_LaZdHaBKMYkh-35" edge="1">
          <mxGeometry width="50" height="50" relative="1" as="geometry">
            <mxPoint x="437" y="294" as="sourcePoint" />
            <mxPoint x="487" y="244" as="targetPoint" />
          </mxGeometry>
        </mxCell>
        <mxCell id="QTqEW-X_LaZdHaBKMYkh-39" value="" style="ellipse;whiteSpace=wrap;html=1;labelBackgroundColor=none;fillColor=#A8DADC;strokeColor=#457B9D;fontColor=#1D3557;" parent="1" vertex="1">
          <mxGeometry x="517" y="154" width="126" height="50" as="geometry" />
        </mxCell>
        <mxCell id="QTqEW-X_LaZdHaBKMYkh-40" value="Edit Supply" style="text;html=1;strokeColor=none;fillColor=none;align=center;verticalAlign=middle;whiteSpace=wrap;rounded=0;labelBackgroundColor=none;fontColor=#1D3557;" parent="1" vertex="1">
          <mxGeometry x="550" y="164" width="60" height="30" as="geometry" />
        </mxCell>
        <mxCell id="QTqEW-X_LaZdHaBKMYkh-41" value="" style="endArrow=none;dashed=1;html=1;dashPattern=1 3;strokeWidth=2;rounded=0;entryX=0;entryY=0.5;entryDx=0;entryDy=0;exitX=1;exitY=0.5;exitDx=0;exitDy=0;labelBackgroundColor=none;strokeColor=#457B9D;fontColor=default;" parent="1" source="QTqEW-X_LaZdHaBKMYkh-31" target="QTqEW-X_LaZdHaBKMYkh-39" edge="1">
          <mxGeometry width="50" height="50" relative="1" as="geometry">
            <mxPoint x="487" y="174" as="sourcePoint" />
            <mxPoint x="567" y="214" as="targetPoint" />
          </mxGeometry>
        </mxCell>
        <mxCell id="QTqEW-X_LaZdHaBKMYkh-42" value="&quot;Include&quot;" style="text;html=1;strokeColor=none;fillColor=none;align=center;verticalAlign=middle;whiteSpace=wrap;rounded=0;rotation=-63;labelBackgroundColor=none;fontColor=#1D3557;" parent="1" vertex="1">
          <mxGeometry x="454" y="112" width="60" height="30" as="geometry" />
        </mxCell>
        <mxCell id="QTqEW-X_LaZdHaBKMYkh-43" value="&quot;Include&quot;" style="text;html=1;strokeColor=none;fillColor=none;align=center;verticalAlign=middle;whiteSpace=wrap;rounded=0;rotation=75;labelBackgroundColor=none;fontColor=#1D3557;" parent="1" vertex="1">
          <mxGeometry x="487" y="198" width="60" height="30" as="geometry" />
        </mxCell>
        <mxCell id="QTqEW-X_LaZdHaBKMYkh-44" value="" style="endArrow=none;html=1;rounded=0;strokeColor=#457B9D;fontColor=default;fillColor=#A8DADC;entryX=0;entryY=0.5;entryDx=0;entryDy=0;exitX=0.5;exitY=0;exitDx=0;exitDy=0;exitPerimeter=0;labelBackgroundColor=none;" parent="1" source="C0oqWAfK8oSzfUO2mAY3-1" target="QTqEW-X_LaZdHaBKMYkh-1" edge="1">
          <mxGeometry width="50" height="50" relative="1" as="geometry">
            <mxPoint x="157" y="408" as="sourcePoint" />
            <mxPoint x="207" y="358" as="targetPoint" />
          </mxGeometry>
        </mxCell>
        <mxCell id="QTqEW-X_LaZdHaBKMYkh-45" value="" style="endArrow=none;html=1;rounded=0;strokeColor=#457B9D;fontColor=default;fillColor=#A8DADC;entryX=0;entryY=0.5;entryDx=0;entryDy=0;exitX=0.5;exitY=0;exitDx=0;exitDy=0;exitPerimeter=0;labelBackgroundColor=none;" parent="1" source="C0oqWAfK8oSzfUO2mAY3-1" target="QTqEW-X_LaZdHaBKMYkh-31" edge="1">
          <mxGeometry width="50" height="50" relative="1" as="geometry">
            <mxPoint x="201" y="490" as="sourcePoint" />
            <mxPoint x="251" y="440" as="targetPoint" />
          </mxGeometry>
        </mxCell>
        <mxCell id="hJsQq-TVlcmMSTCB0xwk-1" value="" style="ellipse;whiteSpace=wrap;html=1;labelBackgroundColor=none;fillColor=#A8DADC;strokeColor=#457B9D;fontColor=#1D3557;" vertex="1" parent="1">
          <mxGeometry x="350" y="1066" width="126" height="50" as="geometry" />
        </mxCell>
        <mxCell id="hJsQq-TVlcmMSTCB0xwk-2" value="Send&amp;nbsp;&lt;br&gt;Complaints" style="text;html=1;strokeColor=none;fillColor=none;align=center;verticalAlign=middle;whiteSpace=wrap;rounded=0;labelBackgroundColor=none;fontColor=#1D3557;" vertex="1" parent="1">
          <mxGeometry x="383" y="1076" width="60" height="30" as="geometry" />
        </mxCell>
        <mxCell id="hJsQq-TVlcmMSTCB0xwk-3" value="" style="endArrow=none;html=1;rounded=0;exitX=0;exitY=0.5;exitDx=0;exitDy=0;labelBackgroundColor=none;strokeColor=#457B9D;fontColor=default;" edge="1" parent="1" source="hJsQq-TVlcmMSTCB0xwk-1" target="C0oqWAfK8oSzfUO2mAY3-1">
          <mxGeometry width="50" height="50" relative="1" as="geometry">
            <mxPoint x="322" y="1079" as="sourcePoint" />
            <mxPoint x="233" y="770" as="targetPoint" />
          </mxGeometry>
        </mxCell>
        <mxCell id="hJsQq-TVlcmMSTCB0xwk-4" value="" style="endArrow=classic;html=1;rounded=0;entryX=0.5;entryY=0;entryDx=0;entryDy=0;entryPerimeter=0;exitX=0.5;exitY=1;exitDx=0;exitDy=0;labelBackgroundColor=none;strokeColor=#457B9D;fontColor=default;" edge="1" parent="1" source="hJsQq-TVlcmMSTCB0xwk-1" target="C0oqWAfK8oSzfUO2mAY3-43">
          <mxGeometry width="50" height="50" relative="1" as="geometry">
            <mxPoint x="232" y="1173" as="sourcePoint" />
            <mxPoint x="282" y="1123" as="targetPoint" />
            <Array as="points">
              <mxPoint x="413" y="1143" />
              <mxPoint x="249" y="1143" />
            </Array>
          </mxGeometry>
        </mxCell>
        <mxCell id="hJsQq-TVlcmMSTCB0xwk-5" value="" style="endArrow=classic;html=1;rounded=0;entryX=0.25;entryY=0.1;entryDx=0;entryDy=0;entryPerimeter=0;exitX=0.5;exitY=1;exitDx=0;exitDy=0;labelBackgroundColor=none;strokeColor=#457B9D;fontColor=default;" edge="1" parent="1" target="C0oqWAfK8oSzfUO2mAY3-61">
          <mxGeometry width="50" height="50" relative="1" as="geometry">
            <mxPoint x="414" y="1116" as="sourcePoint" />
            <mxPoint x="249" y="1205" as="targetPoint" />
            <Array as="points">
              <mxPoint x="414" y="1143" />
              <mxPoint x="109" y="1143" />
              <mxPoint x="109" y="1828" />
            </Array>
          </mxGeometry>
        </mxCell>
        <mxCell id="hJsQq-TVlcmMSTCB0xwk-6" value="" style="endArrow=classic;html=1;rounded=0;entryX=0.25;entryY=0.1;entryDx=0;entryDy=0;entryPerimeter=0;exitX=0.5;exitY=1;exitDx=0;exitDy=0;labelBackgroundColor=none;strokeColor=#457B9D;fontColor=default;" edge="1" parent="1" target="C0oqWAfK8oSzfUO2mAY3-61">
          <mxGeometry width="50" height="50" relative="1" as="geometry">
            <mxPoint x="431" y="1525" as="sourcePoint" />
            <mxPoint x="266" y="1614" as="targetPoint" />
            <Array as="points">
              <mxPoint x="431" y="1567" />
              <mxPoint x="205" y="1566" />
              <mxPoint x="205" y="1797" />
              <mxPoint x="241" y="1797" />
            </Array>
          </mxGeometry>
        </mxCell>
        <mxCell id="hJsQq-TVlcmMSTCB0xwk-7" value="" style="ellipse;whiteSpace=wrap;html=1;labelBackgroundColor=none;fillColor=#A8DADC;strokeColor=#457B9D;fontColor=#1D3557;" vertex="1" parent="1">
          <mxGeometry x="564" y="1818" width="126" height="50" as="geometry" />
        </mxCell>
        <mxCell id="hJsQq-TVlcmMSTCB0xwk-8" value="Receiving Prefilled Orders from System" style="text;html=1;strokeColor=none;fillColor=none;align=center;verticalAlign=middle;whiteSpace=wrap;rounded=0;labelBackgroundColor=none;fontColor=#1D3557;" vertex="1" parent="1">
          <mxGeometry x="580.25" y="1831.5" width="93.5" height="28.75" as="geometry" />
        </mxCell>
        <mxCell id="hJsQq-TVlcmMSTCB0xwk-11" value="" style="endArrow=none;dashed=1;html=1;dashPattern=1 3;strokeWidth=2;rounded=0;exitX=1;exitY=0.5;exitDx=0;exitDy=0;entryX=0;entryY=0.5;entryDx=0;entryDy=0;labelBackgroundColor=none;strokeColor=#457B9D;fontColor=default;" edge="1" parent="1" target="hJsQq-TVlcmMSTCB0xwk-7">
          <mxGeometry width="50" height="50" relative="1" as="geometry">
            <mxPoint x="484" y="1962" as="sourcePoint" />
            <mxPoint x="560" y="1924" as="targetPoint" />
          </mxGeometry>
        </mxCell>
        <mxCell id="hJsQq-TVlcmMSTCB0xwk-12" value="&quot;Include&quot;" style="text;html=1;strokeColor=none;fillColor=none;align=center;verticalAlign=middle;whiteSpace=wrap;rounded=0;rotation=-50;labelBackgroundColor=none;fontColor=#1D3557;" vertex="1" parent="1">
          <mxGeometry x="479.93" y="1868" width="60" height="30" as="geometry" />
        </mxCell>
        <mxCell id="hJsQq-TVlcmMSTCB0xwk-13" value="" style="endArrow=none;dashed=1;html=1;dashPattern=1 3;strokeWidth=2;rounded=0;strokeColor=#457B9D;fontColor=#1D3557;fillColor=#A8DADC;exitX=1;exitY=0.5;exitDx=0;exitDy=0;entryX=0;entryY=0.5;entryDx=0;entryDy=0;" edge="1" parent="1" source="C0oqWAfK8oSzfUO2mAY3-93" target="C0oqWAfK8oSzfUO2mAY3-98">
          <mxGeometry width="50" height="50" relative="1" as="geometry">
            <mxPoint x="755" y="2029" as="sourcePoint" />
            <mxPoint x="805" y="1979" as="targetPoint" />
          </mxGeometry>
        </mxCell>
        <mxCell id="hJsQq-TVlcmMSTCB0xwk-14" value="" style="endArrow=none;dashed=1;html=1;dashPattern=1 3;strokeWidth=2;rounded=0;strokeColor=#457B9D;fontColor=#1D3557;fillColor=#A8DADC;exitX=1;exitY=0.5;exitDx=0;exitDy=0;entryX=0;entryY=0.5;entryDx=0;entryDy=0;" edge="1" parent="1" source="C0oqWAfK8oSzfUO2mAY3-92" target="C0oqWAfK8oSzfUO2mAY3-96">
          <mxGeometry width="50" height="50" relative="1" as="geometry">
            <mxPoint x="699" y="2006" as="sourcePoint" />
            <mxPoint x="831" y="1981" as="targetPoint" />
          </mxGeometry>
        </mxCell>
        <mxCell id="hJsQq-TVlcmMSTCB0xwk-15" value="" style="endArrow=none;dashed=1;html=1;dashPattern=1 3;strokeWidth=2;rounded=0;strokeColor=#457B9D;fontColor=#1D3557;fillColor=#A8DADC;exitX=1;exitY=0.5;exitDx=0;exitDy=0;entryX=0;entryY=0.5;entryDx=0;entryDy=0;" edge="1" parent="1" source="hJsQq-TVlcmMSTCB0xwk-7" target="C0oqWAfK8oSzfUO2mAY3-96">
          <mxGeometry width="50" height="50" relative="1" as="geometry">
            <mxPoint x="700" y="2008" as="sourcePoint" />
            <mxPoint x="827" y="1895" as="targetPoint" />
          </mxGeometry>
        </mxCell>
        <mxCell id="hJsQq-TVlcmMSTCB0xwk-16" value="" style="endArrow=none;dashed=1;html=1;dashPattern=1 3;strokeWidth=2;rounded=0;strokeColor=#457B9D;fontColor=#1D3557;fillColor=#A8DADC;exitX=1;exitY=0.5;exitDx=0;exitDy=0;entryX=0;entryY=0.5;entryDx=0;entryDy=0;" edge="1" parent="1" source="hJsQq-TVlcmMSTCB0xwk-7" target="C0oqWAfK8oSzfUO2mAY3-98">
          <mxGeometry width="50" height="50" relative="1" as="geometry">
            <mxPoint x="700" y="1853" as="sourcePoint" />
            <mxPoint x="827" y="1895" as="targetPoint" />
          </mxGeometry>
        </mxCell>
        <mxCell id="hJsQq-TVlcmMSTCB0xwk-17" value="&quot;Include&quot;" style="text;html=1;strokeColor=none;fillColor=none;align=center;verticalAlign=middle;whiteSpace=wrap;rounded=0;rotation=0;labelBackgroundColor=none;fontColor=#1D3557;" vertex="1" parent="1">
          <mxGeometry x="734" y="1989" width="60" height="30" as="geometry" />
        </mxCell>
        <mxCell id="hJsQq-TVlcmMSTCB0xwk-18" value="&quot;Include&quot;" style="text;html=1;strokeColor=none;fillColor=none;align=center;verticalAlign=middle;whiteSpace=wrap;rounded=0;rotation=-50;labelBackgroundColor=none;fontColor=#1D3557;" vertex="1" parent="1">
          <mxGeometry x="692" y="1931" width="60" height="30" as="geometry" />
        </mxCell>
        <mxCell id="hJsQq-TVlcmMSTCB0xwk-19" value="&quot;Include&quot;" style="text;html=1;strokeColor=none;fillColor=none;align=center;verticalAlign=middle;whiteSpace=wrap;rounded=0;rotation=15;labelBackgroundColor=none;fontColor=#1D3557;" vertex="1" parent="1">
          <mxGeometry x="737" y="1836.5" width="60" height="30" as="geometry" />
        </mxCell>
        <mxCell id="hJsQq-TVlcmMSTCB0xwk-21" value="&quot;Include&quot;" style="text;html=1;strokeColor=none;fillColor=none;align=center;verticalAlign=middle;whiteSpace=wrap;rounded=0;rotation=45;labelBackgroundColor=none;fontColor=#1D3557;" vertex="1" parent="1">
          <mxGeometry x="730.25" y="1874" width="60" height="30" as="geometry" />
        </mxCell>
        <mxCell id="hJsQq-TVlcmMSTCB0xwk-24" value="" style="ellipse;whiteSpace=wrap;html=1;labelBackgroundColor=none;fillColor=#A8DADC;strokeColor=#457B9D;fontColor=#1D3557;" vertex="1" parent="1">
          <mxGeometry x="956.9999999999999" y="1866.5" width="108.99" height="59.5" as="geometry" />
        </mxCell>
        <mxCell id="hJsQq-TVlcmMSTCB0xwk-25" value="Edit Order Volume" style="text;html=1;strokeColor=none;fillColor=none;align=center;verticalAlign=middle;whiteSpace=wrap;rounded=0;labelBackgroundColor=none;fontColor=#1D3557;" vertex="1" parent="1">
          <mxGeometry x="967.6799999999998" y="1882.5" width="87.62" height="29.5" as="geometry" />
        </mxCell>
        <mxCell id="hJsQq-TVlcmMSTCB0xwk-26" value="" style="ellipse;whiteSpace=wrap;html=1;labelBackgroundColor=none;fillColor=#A8DADC;strokeColor=#457B9D;fontColor=#1D3557;" vertex="1" parent="1">
          <mxGeometry x="1084" y="1900.5" width="114" height="60.5" as="geometry" />
        </mxCell>
        <mxCell id="hJsQq-TVlcmMSTCB0xwk-27" value="Edit Order Positions" style="text;html=1;strokeColor=none;fillColor=none;align=center;verticalAlign=middle;whiteSpace=wrap;rounded=0;labelBackgroundColor=none;fontColor=#1D3557;" vertex="1" parent="1">
          <mxGeometry x="1090.6799999999998" y="1916" width="100.63" height="29.5" as="geometry" />
        </mxCell>
        <mxCell id="hJsQq-TVlcmMSTCB0xwk-28" value="" style="ellipse;whiteSpace=wrap;html=1;labelBackgroundColor=none;fillColor=#A8DADC;strokeColor=#457B9D;fontColor=#1D3557;" vertex="1" parent="1">
          <mxGeometry x="957" y="1934" width="120.99" height="61.5" as="geometry" />
        </mxCell>
        <mxCell id="hJsQq-TVlcmMSTCB0xwk-29" value="Edit Text Description" style="text;html=1;strokeColor=none;fillColor=none;align=center;verticalAlign=middle;whiteSpace=wrap;rounded=0;labelBackgroundColor=none;fontColor=#1D3557;" vertex="1" parent="1">
          <mxGeometry x="966.38" y="1949" width="104.62" height="31.5" as="geometry" />
        </mxCell>
        <mxCell id="hJsQq-TVlcmMSTCB0xwk-30" value="" style="endArrow=classic;html=1;rounded=0;strokeColor=#457B9D;fontColor=#1D3557;fillColor=#A8DADC;entryX=1;entryY=0.5;entryDx=0;entryDy=0;exitX=0;exitY=0.5;exitDx=0;exitDy=0;" edge="1" parent="1" source="hJsQq-TVlcmMSTCB0xwk-24" target="C0oqWAfK8oSzfUO2mAY3-90">
          <mxGeometry width="50" height="50" relative="1" as="geometry">
            <mxPoint x="912" y="2081" as="sourcePoint" />
            <mxPoint x="962" y="2031" as="targetPoint" />
          </mxGeometry>
        </mxCell>
        <mxCell id="hJsQq-TVlcmMSTCB0xwk-31" value="" style="endArrow=classic;html=1;rounded=0;strokeColor=#457B9D;fontColor=#1D3557;fillColor=#A8DADC;entryX=1;entryY=0.5;entryDx=0;entryDy=0;exitX=0;exitY=0.5;exitDx=0;exitDy=0;" edge="1" parent="1" source="hJsQq-TVlcmMSTCB0xwk-28" target="C0oqWAfK8oSzfUO2mAY3-90">
          <mxGeometry width="50" height="50" relative="1" as="geometry">
            <mxPoint x="953" y="2060" as="sourcePoint" />
            <mxPoint x="1003" y="2010" as="targetPoint" />
          </mxGeometry>
        </mxCell>
        <mxCell id="hJsQq-TVlcmMSTCB0xwk-32" value="" style="endArrow=classic;html=1;rounded=0;strokeColor=#457B9D;fontColor=#1D3557;fillColor=#A8DADC;entryX=1;entryY=0.5;entryDx=0;entryDy=0;exitX=0;exitY=0.5;exitDx=0;exitDy=0;" edge="1" parent="1" source="hJsQq-TVlcmMSTCB0xwk-26" target="C0oqWAfK8oSzfUO2mAY3-90">
          <mxGeometry width="50" height="50" relative="1" as="geometry">
            <mxPoint x="865" y="1970" as="sourcePoint" />
            <mxPoint x="915" y="1920" as="targetPoint" />
          </mxGeometry>
        </mxCell>
        <mxCell id="hJsQq-TVlcmMSTCB0xwk-34" value="" style="endArrow=classic;html=1;rounded=0;strokeColor=#457B9D;fontColor=#1D3557;fillColor=#A8DADC;exitX=0.5;exitY=1;exitDx=0;exitDy=0;entryX=0.25;entryY=0.1;entryDx=0;entryDy=0;entryPerimeter=0;" edge="1" parent="1" source="RdfG1WQIROKjiYzc3zPx-15" target="C0oqWAfK8oSzfUO2mAY3-43">
          <mxGeometry width="50" height="50" relative="1" as="geometry">
            <mxPoint x="320" y="2373" as="sourcePoint" />
            <mxPoint x="370" y="2323" as="targetPoint" />
            <Array as="points">
              <mxPoint x="413" y="2352" />
              <mxPoint x="80" y="2350" />
              <mxPoint x="84" y="1211" />
            </Array>
          </mxGeometry>
        </mxCell>
        <mxCell id="hJsQq-TVlcmMSTCB0xwk-35" value="" style="ellipse;whiteSpace=wrap;html=1;labelBackgroundColor=none;fillColor=#A8DADC;strokeColor=#457B9D;fontColor=#1D3557;" vertex="1" parent="1">
          <mxGeometry x="580.25" y="1557.25" width="180" height="71" as="geometry" />
        </mxCell>
        <mxCell id="hJsQq-TVlcmMSTCB0xwk-36" value="Edit Min and Max Limits and its dates&amp;nbsp;" style="text;html=1;strokeColor=none;fillColor=none;align=center;verticalAlign=middle;whiteSpace=wrap;rounded=0;labelBackgroundColor=none;fontColor=#1D3557;" vertex="1" parent="1">
          <mxGeometry x="606.25" y="1569.75" width="127.87" height="46" as="geometry" />
        </mxCell>
        <mxCell id="hJsQq-TVlcmMSTCB0xwk-37" value="" style="endArrow=none;dashed=1;html=1;dashPattern=1 3;strokeWidth=2;rounded=0;exitX=1;exitY=0.5;exitDx=0;exitDy=0;entryX=0;entryY=0.5;entryDx=0;entryDy=0;labelBackgroundColor=none;strokeColor=#457B9D;fontColor=default;" edge="1" parent="1" source="C0oqWAfK8oSzfUO2mAY3-62" target="hJsQq-TVlcmMSTCB0xwk-35">
          <mxGeometry width="50" height="50" relative="1" as="geometry">
            <mxPoint x="417.5" y="1736.25" as="sourcePoint" />
            <mxPoint x="616.5" y="1684.25" as="targetPoint" />
          </mxGeometry>
        </mxCell>
        <mxCell id="hJsQq-TVlcmMSTCB0xwk-38" value="&quot;Include&quot;" style="text;html=1;strokeColor=none;fillColor=none;align=center;verticalAlign=middle;whiteSpace=wrap;rounded=0;rotation=-65;labelBackgroundColor=none;fontColor=#1D3557;" vertex="1" parent="1">
          <mxGeometry x="473" y="1688" width="60" height="30" as="geometry" />
        </mxCell>
        <mxCell id="hJsQq-TVlcmMSTCB0xwk-39" value="" style="ellipse;whiteSpace=wrap;html=1;labelBackgroundColor=none;fillColor=#A8DADC;strokeColor=#457B9D;fontColor=#1D3557;" vertex="1" parent="1">
          <mxGeometry x="820.25" y="1488" width="180" height="71" as="geometry" />
        </mxCell>
        <mxCell id="hJsQq-TVlcmMSTCB0xwk-40" value="Edit Min and Max Limits and its dates for Single Department" style="text;html=1;strokeColor=none;fillColor=none;align=center;verticalAlign=middle;whiteSpace=wrap;rounded=0;labelBackgroundColor=none;fontColor=#1D3557;" vertex="1" parent="1">
          <mxGeometry x="846.25" y="1500.5" width="127.87" height="46" as="geometry" />
        </mxCell>
        <mxCell id="hJsQq-TVlcmMSTCB0xwk-41" value="" style="ellipse;whiteSpace=wrap;html=1;labelBackgroundColor=none;fillColor=#A8DADC;strokeColor=#457B9D;fontColor=#1D3557;" vertex="1" parent="1">
          <mxGeometry x="811" y="1611" width="180" height="71" as="geometry" />
        </mxCell>
        <mxCell id="hJsQq-TVlcmMSTCB0xwk-42" value="Edit Min and Max Limits and its dates for All Departments at once" style="text;html=1;strokeColor=none;fillColor=none;align=center;verticalAlign=middle;whiteSpace=wrap;rounded=0;labelBackgroundColor=none;fontColor=#1D3557;" vertex="1" parent="1">
          <mxGeometry x="837" y="1623.5" width="127.87" height="46" as="geometry" />
        </mxCell>
        <mxCell id="hJsQq-TVlcmMSTCB0xwk-43" value="" style="ellipse;whiteSpace=wrap;html=1;labelBackgroundColor=none;fillColor=#A8DADC;strokeColor=#457B9D;fontColor=#1D3557;" vertex="1" parent="1">
          <mxGeometry x="981.5" y="1550" width="209.25" height="85.5" as="geometry" />
        </mxCell>
        <mxCell id="hJsQq-TVlcmMSTCB0xwk-44" value="Edit Average Min and Max Limits and its dates for Pre-filling&amp;nbsp;Limits for Newly added Positions" style="text;html=1;strokeColor=none;fillColor=none;align=center;verticalAlign=middle;whiteSpace=wrap;rounded=0;labelBackgroundColor=none;fontColor=#1D3557;" vertex="1" parent="1">
          <mxGeometry x="1017.75" y="1572.5" width="145" height="46" as="geometry" />
        </mxCell>
        <mxCell id="hJsQq-TVlcmMSTCB0xwk-45" value="" style="endArrow=classic;html=1;rounded=0;strokeColor=#457B9D;fontColor=#1D3557;fillColor=#A8DADC;entryX=0.965;entryY=0.743;entryDx=0;entryDy=0;entryPerimeter=0;exitX=0;exitY=0.5;exitDx=0;exitDy=0;" edge="1" parent="1" source="hJsQq-TVlcmMSTCB0xwk-41" target="hJsQq-TVlcmMSTCB0xwk-35">
          <mxGeometry width="50" height="50" relative="1" as="geometry">
            <mxPoint x="616" y="1719" as="sourcePoint" />
            <mxPoint x="666" y="1669" as="targetPoint" />
          </mxGeometry>
        </mxCell>
        <mxCell id="hJsQq-TVlcmMSTCB0xwk-46" value="" style="endArrow=classic;html=1;rounded=0;strokeColor=#457B9D;fontColor=#1D3557;fillColor=#A8DADC;entryX=1;entryY=0.5;entryDx=0;entryDy=0;exitX=0;exitY=0.5;exitDx=0;exitDy=0;" edge="1" parent="1" source="hJsQq-TVlcmMSTCB0xwk-43" target="hJsQq-TVlcmMSTCB0xwk-35">
          <mxGeometry width="50" height="50" relative="1" as="geometry">
            <mxPoint x="768" y="1576" as="sourcePoint" />
            <mxPoint x="818" y="1526" as="targetPoint" />
          </mxGeometry>
        </mxCell>
        <mxCell id="hJsQq-TVlcmMSTCB0xwk-47" value="" style="endArrow=classic;html=1;rounded=0;strokeColor=#457B9D;fontColor=#1D3557;fillColor=#A8DADC;entryX=0.971;entryY=0.335;entryDx=0;entryDy=0;entryPerimeter=0;exitX=0;exitY=0.5;exitDx=0;exitDy=0;" edge="1" parent="1" source="hJsQq-TVlcmMSTCB0xwk-39" target="hJsQq-TVlcmMSTCB0xwk-35">
          <mxGeometry width="50" height="50" relative="1" as="geometry">
            <mxPoint x="730" y="1568" as="sourcePoint" />
            <mxPoint x="780" y="1518" as="targetPoint" />
          </mxGeometry>
        </mxCell>
        <mxCell id="hJsQq-TVlcmMSTCB0xwk-48" value="" style="ellipse;whiteSpace=wrap;html=1;labelBackgroundColor=none;fillColor=#A8DADC;strokeColor=#457B9D;fontColor=#1D3557;" vertex="1" parent="1">
          <mxGeometry x="1343" y="1562.5" width="114" height="60.5" as="geometry" />
        </mxCell>
        <mxCell id="hJsQq-TVlcmMSTCB0xwk-49" value="Analyzing&amp;nbsp;&lt;br&gt;legacy files and their Stat" style="text;html=1;strokeColor=none;fillColor=none;align=center;verticalAlign=middle;whiteSpace=wrap;rounded=0;labelBackgroundColor=none;fontColor=#1D3557;" vertex="1" parent="1">
          <mxGeometry x="1349.6799999999998" y="1578" width="100.63" height="29.5" as="geometry" />
        </mxCell>
        <mxCell id="hJsQq-TVlcmMSTCB0xwk-50" value="" style="endArrow=none;dashed=1;html=1;dashPattern=1 3;strokeWidth=2;rounded=0;strokeColor=#457B9D;fontColor=#1D3557;fillColor=#A8DADC;exitX=1;exitY=0.5;exitDx=0;exitDy=0;entryX=0;entryY=0.5;entryDx=0;entryDy=0;" edge="1" parent="1" source="hJsQq-TVlcmMSTCB0xwk-43" target="hJsQq-TVlcmMSTCB0xwk-48">
          <mxGeometry width="50" height="50" relative="1" as="geometry">
            <mxPoint x="1226" y="1496" as="sourcePoint" />
            <mxPoint x="1276" y="1446" as="targetPoint" />
          </mxGeometry>
        </mxCell>
        <mxCell id="hJsQq-TVlcmMSTCB0xwk-51" value="" style="endArrow=none;dashed=1;html=1;dashPattern=1 3;strokeWidth=2;rounded=0;strokeColor=#457B9D;fontColor=#1D3557;fillColor=#A8DADC;exitX=1;exitY=0.5;exitDx=0;exitDy=0;entryX=0;entryY=0.5;entryDx=0;entryDy=0;" edge="1" parent="1" source="hJsQq-TVlcmMSTCB0xwk-41" target="hJsQq-TVlcmMSTCB0xwk-48">
          <mxGeometry width="50" height="50" relative="1" as="geometry">
            <mxPoint x="1181" y="1671.25" as="sourcePoint" />
            <mxPoint x="1333" y="1671.25" as="targetPoint" />
            <Array as="points">
              <mxPoint x="1196" y="1647" />
            </Array>
          </mxGeometry>
        </mxCell>
        <mxCell id="hJsQq-TVlcmMSTCB0xwk-52" value="" style="endArrow=none;dashed=1;html=1;dashPattern=1 3;strokeWidth=2;rounded=0;strokeColor=#457B9D;fontColor=#1D3557;fillColor=#A8DADC;exitX=1;exitY=0.5;exitDx=0;exitDy=0;entryX=0;entryY=0.5;entryDx=0;entryDy=0;" edge="1" parent="1" source="hJsQq-TVlcmMSTCB0xwk-39" target="hJsQq-TVlcmMSTCB0xwk-48">
          <mxGeometry width="50" height="50" relative="1" as="geometry">
            <mxPoint x="1013" y="1488" as="sourcePoint" />
            <mxPoint x="1365" y="1434" as="targetPoint" />
            <Array as="points">
              <mxPoint x="1218" y="1561" />
            </Array>
          </mxGeometry>
        </mxCell>
        <mxCell id="hJsQq-TVlcmMSTCB0xwk-53" value="&quot;Include&quot;" style="text;html=1;strokeColor=none;fillColor=none;align=center;verticalAlign=middle;whiteSpace=wrap;rounded=0;rotation=10;labelBackgroundColor=none;fontColor=#1D3557;" vertex="1" parent="1">
          <mxGeometry x="1148" y="1513" width="60" height="30" as="geometry" />
        </mxCell>
        <mxCell id="hJsQq-TVlcmMSTCB0xwk-54" value="&quot;Include&quot;" style="text;html=1;strokeColor=none;fillColor=none;align=center;verticalAlign=middle;whiteSpace=wrap;rounded=0;rotation=-5;labelBackgroundColor=none;fontColor=#1D3557;" vertex="1" parent="1">
          <mxGeometry x="1201" y="1593" width="60" height="30" as="geometry" />
        </mxCell>
        <mxCell id="hJsQq-TVlcmMSTCB0xwk-55" value="&quot;Include&quot;" style="text;html=1;strokeColor=none;fillColor=none;align=center;verticalAlign=middle;whiteSpace=wrap;rounded=0;rotation=0;labelBackgroundColor=none;fontColor=#1D3557;" vertex="1" parent="1">
          <mxGeometry x="1141" y="1650" width="60" height="30" as="geometry" />
        </mxCell>
      </root>
    </mxGraphModel>
  </diagram>
</mxfile>
